<svg width="54" height="8" viewBox="0 0 54 8" fill="none" xmlns="http://www.w3.org/2000/svg">
<path d="M53.3536 4.35355C53.5488 4.15829 53.5488 3.84171 53.3536 3.64645L50.1716 0.464466C49.9763 0.269204 49.6597 0.269204 49.4645 0.464466C49.2692 0.659728 49.2692 0.976311 49.4645 1.17157L52.2929 4L49.4645 6.82843C49.2692 7.02369 49.2692 7.34027 49.4645 7.53553C49.6597 7.7308 49.9763 7.7308 50.1716 7.53553L53.3536 4.35355ZM0.5 4.5C0.570312 4.5 0.640541 4.5 0.710686 4.5C0.780831 4.5 0.850891 4.5 0.920869 4.5C0.990846 4.5 1.06074 4.5 1.13055 4.5C1.20036 4.5 1.27008 4.5 1.33973 4.5C1.40937 4.5 1.47893 4.5 1.5484 4.5C1.61788 4.5 1.68727 4.5 1.75658 4.5C1.82589 4.5 1.89511 4.5 1.96425 4.5C2.03339 4.5 2.10245 4.5 2.17143 4.5C2.2404 4.5 2.30929 4.5 2.3781 4.5C2.44691 4.5 2.51563 4.5 2.58428 4.5C2.65292 4.5 2.72148 4.5 2.78995 4.5C2.85843 4.5 2.92682 4.5 2.99513 4.5C3.06344 4.5 3.13167 4.5 3.19981 4.5C3.26795 4.5 3.33601 4.5 3.40399 4.5C3.47197 4.5 3.53987 4.5 3.60768 4.5C3.67549 4.5 3.74322 4.5 3.81087 4.5C3.87851 4.5 3.94608 4.5 4.01356 4.5C4.08104 4.5 4.14844 4.5 4.21576 4.5C4.28307 4.5 4.35031 4.5 4.41746 4.5C4.48461 4.5 4.55168 4.5 4.61867 4.5C4.68565 4.5 4.75256 4.5 4.81938 4.5C4.8862 4.5 4.95294 4.5 5.0196 4.5C5.08626 4.5 5.15283 4.5 5.21933 4.5C5.28582 4.5 5.35223 4.5 5.41856 4.5C5.48489 4.5 5.55114 4.5 5.6173 4.5C5.68347 4.5 5.74955 4.5 5.81555 4.5C5.88155 4.5 5.94747 4.5 6.01331 4.5C6.07915 4.5 6.14491 4.5 6.21058 4.5C6.27625 4.5 6.34185 4.5 6.40736 4.5C6.47287 4.5 6.5383 4.5 6.60364 4.5C6.66899 4.5 6.73426 4.5 6.79944 4.5C6.86463 4.5 6.92973 4.5 6.99475 4.5C7.05977 4.5 7.12471 4.5 7.18957 4.5C7.25443 4.5 7.31921 4.5 7.3839 4.5C7.4486 4.5 7.51321 4.5 7.57775 4.5C7.64228 4.5 7.70673 4.5 7.77111 4.5C7.83548 4.5 7.89977 4.5 7.96398 4.5C8.02819 4.5 8.09231 4.5 8.15636 4.5C8.22041 4.5 8.28438 4.5 8.34826 4.5C8.41215 4.5 8.47595 4.5 8.53967 4.5C8.6034 4.5 8.66704 4.5 8.7306 4.5C8.79417 4.5 8.85765 4.5 8.92105 4.5C8.98445 4.5 9.04777 4.5 9.11101 4.5C9.17425 4.5 9.23741 4.5 9.30049 4.5C9.36357 4.5 9.42656 4.5 9.48948 4.5C9.5524 4.5 9.61524 4.5 9.67799 4.5C9.74075 4.5 9.80343 4.5 9.86602 4.5C9.92862 4.5 9.99114 4.5 10.0536 4.5C10.116 4.5 10.1784 4.5 10.2406 4.5C10.3029 4.5 10.3651 4.5 10.4272 4.5C10.4893 4.5 10.5514 4.5 10.6133 4.5C10.6753 4.5 10.7372 4.5 10.799 4.5C10.8608 4.5 10.9225 4.5 10.9841 4.5C11.0457 4.5 11.1073 4.5 11.1688 4.5C11.2303 4.5 11.2917 4.5 11.353 4.5C11.4143 4.5 11.4755 4.5 11.5367 4.5C11.5978 4.5 11.6589 4.5 11.7199 4.5C11.7809 4.5 11.8418 4.5 11.9027 4.5C11.9635 4.5 12.0243 4.5 12.085 4.5C12.1456 4.5 12.2063 4.5 12.2668 4.5C12.3273 4.5 12.3877 4.5 12.4481 4.5C12.5085 4.5 12.5688 4.5 12.629 4.5C12.6892 4.5 12.7493 4.5 12.8093 4.5C12.8694 4.5 12.9294 4.5 12.9893 4.5C13.0491 4.5 13.109 4.5 13.1687 4.5C13.2284 4.5 13.2881 4.5 13.3477 4.5C13.4072 4.5 13.4667 4.5 13.5261 4.5C13.5856 4.5 13.6449 4.5 13.7042 4.5C13.7634 4.5 13.8226 4.5 13.8817 4.5C13.9408 4.5 13.9998 4.5 14.0588 4.5C14.1177 4.5 14.1766 4.5 14.2354 4.5C14.2942 4.5 14.3529 4.5 14.4115 4.5C14.4702 4.5 14.5287 4.5 14.5872 4.5C14.6457 4.5 14.7041 4.5 14.7624 4.5C14.8207 4.5 14.8789 4.5 14.9371 4.5C14.9953 4.5 15.0534 4.5 15.1114 4.5C15.1694 4.5 15.2273 4.5 15.2852 4.5C15.343 4.5 15.4008 4.5 15.4585 4.5C15.5162 4.5 15.5738 4.5 15.6313 4.5C15.6889 4.5 15.7463 4.5 15.8037 4.5C15.8611 4.5 15.9184 4.5 15.9756 4.5C16.0329 4.5 16.09 4.5 16.1471 4.5C16.2042 4.5 16.2612 4.5 16.3181 4.5C16.375 4.5 16.4319 4.5 16.4886 4.5C16.5454 4.5 16.6021 4.5 16.6587 4.5C16.7153 4.5 16.7718 4.5 16.8283 4.5C16.8848 4.5 16.9411 4.5 16.9974 4.5C17.0537 4.5 17.11 4.5 17.1661 4.5C17.2223 4.5 17.2783 4.5 17.3343 4.5C17.3903 4.5 17.4462 4.5 17.5021 4.5C17.5579 4.5 17.6137 4.5 17.6694 4.5C17.725 4.5 17.7807 4.5 17.8362 4.5C17.8917 4.5 17.9472 4.5 18.0026 4.5C18.0579 4.5 18.1132 4.5 18.1685 4.5C18.2237 4.5 18.2788 4.5 18.3339 4.5C18.389 4.5 18.444 4.5 18.4989 4.5C18.5538 4.5 18.6087 4.5 18.6634 4.5C18.7182 4.5 18.7729 4.5 18.8275 4.5C18.8821 4.5 18.9367 4.5 18.9911 4.5C19.0456 4.5 19.1 4.5 19.1543 4.5C19.2086 4.5 19.2628 4.5 19.317 4.5C19.3711 4.5 19.4252 4.5 19.4792 4.5C19.5332 4.5 19.5872 4.5 19.641 4.5C19.6949 4.5 19.7487 4.5 19.8024 4.5C19.8561 4.5 19.9097 4.5 19.9632 4.5C20.0168 4.5 20.0703 4.5 20.1237 4.5C20.1771 4.5 20.2304 4.5 20.2836 4.5C20.3369 4.5 20.3901 4.5 20.4432 4.5C20.4963 4.5 20.5493 4.5 20.6022 4.5C20.6552 4.5 20.708 4.5 20.7608 4.5C20.8136 4.5 20.8664 4.5 20.919 4.5C20.9716 4.5 21.0242 4.5 21.0767 4.5C21.1292 4.5 21.1816 4.5 21.234 4.5C21.2863 4.5 21.3386 4.5 21.3908 4.5C21.443 4.5 21.4951 4.5 21.5471 4.5C21.5992 4.5 21.6511 4.5 21.703 4.5C21.7549 4.5 21.8068 4.5 21.8585 4.5C21.9102 4.5 21.9619 4.5 22.0135 4.5C22.0651 4.5 22.1166 4.5 22.1681 4.5C22.2195 4.5 22.2709 4.5 22.3222 4.5C22.3735 4.5 22.4247 4.5 22.4759 4.5C22.527 4.5 22.5781 4.5 22.6291 4.5C22.6801 4.5 22.731 4.5 22.7819 4.5C22.8327 4.5 22.8835 4.5 22.9342 4.5C22.9849 4.5 23.0355 4.5 23.0861 4.5C23.1366 4.5 23.1871 4.5 23.2375 4.5C23.2879 4.5 23.3383 4.5 23.3885 4.5C23.4388 4.5 23.489 4.5 23.5391 4.5C23.5892 4.5 23.6392 4.5 23.6892 4.5C23.7391 4.5 23.789 4.5 23.8388 4.5C23.8886 4.5 23.9384 4.5 23.9881 4.5C24.0377 4.5 24.0873 4.5 24.1368 4.5C24.1864 4.5 24.2358 4.5 24.2852 4.5C24.3345 4.5 24.3838 4.5 24.4331 4.5C24.4823 4.5 24.5315 4.5 24.5805 4.5C24.6296 4.5 24.6786 4.5 24.7275 4.5C24.7765 4.5 24.8253 4.5 24.8741 4.5C24.9229 4.5 24.9716 4.5 25.0203 4.5C25.0689 4.5 25.1175 4.5 25.166 4.5C25.2145 4.5 25.2629 4.5 25.3112 4.5C25.3596 4.5 25.4078 4.5 25.456 4.5C25.5042 4.5 25.5524 4.5 25.6004 4.5C25.6485 4.5 25.6965 4.5 25.7444 4.5C25.7923 4.5 25.8401 4.5 25.8879 4.5C25.9357 4.5 25.9834 4.5 26.031 4.5C26.0786 4.5 26.1261 4.5 26.1736 4.5C26.2211 4.5 26.2685 4.5 26.3158 4.5C26.3631 4.5 26.4104 4.5 26.4576 4.5C26.5048 4.5 26.5519 4.5 26.5989 4.5C26.646 4.5 26.6929 4.5 26.7398 4.5C26.7867 4.5 26.8335 4.5 26.8803 4.5C26.9271 4.5 26.9737 4.5 27.0203 4.5C27.0669 4.5 27.1135 4.5 27.1599 4.5C27.2064 4.5 27.2528 4.5 27.2991 4.5C27.3454 4.5 27.3917 4.5 27.4379 4.5C27.484 4.5 27.5301 4.5 27.5762 4.5C27.6222 4.5 27.6682 4.5 27.7141 4.5C27.7599 4.5 27.8058 4.5 27.8515 4.5C27.8973 4.5 27.9429 4.5 27.9885 4.5C28.0341 4.5 28.0797 4.5 28.1251 4.5C28.1706 4.5 28.216 4.5 28.2613 4.5C28.3066 4.5 28.3519 4.5 28.397 4.5C28.4422 4.5 28.4873 4.5 28.5323 4.5C28.5774 4.5 28.6223 4.5 28.6672 4.5C28.7121 4.5 28.7569 4.5 28.8017 4.5C28.8464 4.5 28.8911 4.5 28.9357 4.5C28.9803 4.5 29.0248 4.5 29.0693 4.5C29.1138 4.5 29.1582 4.5 29.2025 4.5C29.2468 4.5 29.2911 4.5 29.3352 4.5C29.3794 4.5 29.4235 4.5 29.4676 4.5C29.5116 4.5 29.5556 4.5 29.5995 4.5C29.6434 4.5 29.6872 4.5 29.731 4.5C29.7747 4.5 29.8184 4.5 29.862 4.5C29.9056 4.5 29.9492 4.5 29.9927 4.5C30.0361 4.5 30.0795 4.5 30.1229 4.5C30.1662 4.5 30.2095 4.5 30.2527 4.5C30.2959 4.5 30.339 4.5 30.382 4.5C30.4251 4.5 30.4681 4.5 30.511 4.5C30.5539 4.5 30.5968 4.5 30.6395 4.5C30.6823 4.5 30.725 4.5 30.7676 4.5C30.8103 4.5 30.8528 4.5 30.8953 4.5C30.9378 4.5 30.9803 4.5 31.0226 4.5C31.065 4.5 31.1073 4.5 31.1495 4.5C31.1917 4.5 31.2338 4.5 31.2759 4.5C31.318 4.5 31.36 4.5 31.4019 4.5C31.4439 4.5 31.4857 4.5 31.5275 4.5C31.5693 4.5 31.6111 4.5 31.6527 4.5C31.6944 4.5 31.736 4.5 31.7775 4.5C31.819 4.5 31.8605 4.5 31.9019 4.5C31.9433 4.5 31.9846 4.5 32.0258 4.5C32.0671 4.5 32.1082 4.5 32.1493 4.5C32.1905 4.5 32.2315 4.5 32.2725 4.5C32.3134 4.5 32.3543 4.5 32.3952 4.5C32.436 4.5 32.4768 4.5 32.5175 4.5C32.5581 4.5 32.5988 4.5 32.6393 4.5C32.6799 4.5 32.7204 4.5 32.7608 4.5C32.8012 4.5 32.8416 4.5 32.8819 4.5C32.9221 4.5 32.9623 4.5 33.0025 4.5C33.0426 4.5 33.0827 4.5 33.1227 4.5C33.1627 4.5 33.2027 4.5 33.2425 4.5C33.2824 4.5 33.3222 4.5 33.362 4.5C33.4017 4.5 33.4414 4.5 33.481 4.5C33.5206 4.5 33.5601 4.5 33.5996 4.5C33.639 4.5 33.6784 4.5 33.7177 4.5C33.7571 4.5 33.7963 4.5 33.8355 4.5C33.8747 4.5 33.9138 4.5 33.9529 4.5C33.992 4.5 34.0309 4.5 34.0699 4.5C34.1088 4.5 34.1476 4.5 34.1864 4.5C34.2252 4.5 34.2639 4.5 34.3026 4.5C34.3412 4.5 34.3798 4.5 34.4183 4.5C34.4568 4.5 34.4953 4.5 34.5337 4.5C34.572 4.5 34.6103 4.5 34.6486 4.5C34.6868 4.5 34.725 4.5 34.7631 4.5C34.8012 4.5 34.8393 4.5 34.8773 4.5C34.9152 4.5 34.9531 4.5 34.991 4.5C35.0288 4.5 35.0666 4.5 35.1043 4.5C35.142 4.5 35.1797 4.5 35.2172 4.5C35.2548 4.5 35.2923 4.5 35.3298 4.5C35.3672 4.5 35.4046 4.5 35.4419 4.5C35.4792 4.5 35.5164 4.5 35.5536 4.5C35.5908 4.5 35.6279 4.5 35.6649 4.5C35.7019 4.5 35.7389 4.5 35.7758 4.5C35.8127 4.5 35.8496 4.5 35.8863 4.5C35.9231 4.5 35.9598 4.5 35.9965 4.5C36.0331 4.5 36.0697 4.5 36.1062 4.5C36.1427 4.5 36.1791 4.5 36.2155 4.5C36.2519 4.5 36.2882 4.5 36.3244 4.5C36.3607 4.5 36.3969 4.5 36.433 4.5C36.4691 4.5 36.5051 4.5 36.5411 4.5C36.5771 4.5 36.613 4.5 36.6488 4.5C36.6847 4.5 36.7205 4.5 36.7562 4.5C36.7919 4.5 36.8275 4.5 36.8631 4.5C36.8987 4.5 36.9342 4.5 36.9697 4.5C37.0051 4.5 37.0405 4.5 37.0758 4.5C37.1111 4.5 37.1464 4.5 37.1816 4.5C37.2168 4.5 37.2519 4.5 37.287 4.5C37.322 4.5 37.357 4.5 37.3919 4.5C37.4269 4.5 37.4617 4.5 37.4965 4.5C37.5313 4.5 37.566 4.5 37.6007 4.5C37.6354 4.5 37.67 4.5 37.7045 4.5C37.739 4.5 37.7735 4.5 37.8079 4.5C37.8423 4.5 37.8767 4.5 37.9109 4.5C37.9452 4.5 37.9794 4.5 38.0136 4.5C38.0477 4.5 38.0818 4.5 38.1158 4.5C38.1498 4.5 38.1838 4.5 38.2177 4.5C38.2516 4.5 38.2854 4.5 38.3191 4.5C38.3529 4.5 38.3866 4.5 38.4202 4.5C38.4538 4.5 38.4874 4.5 38.5209 4.5C38.5544 4.5 38.5878 4.5 38.6212 4.5C38.6546 4.5 38.6879 4.5 38.7211 4.5C38.7543 4.5 38.7875 4.5 38.8206 4.5C38.8537 4.5 38.8868 4.5 38.9198 4.5C38.9528 4.5 38.9857 4.5 39.0185 4.5C39.0514 4.5 39.0842 4.5 39.1169 4.5C39.1496 4.5 39.1823 4.5 39.2149 4.5C39.2475 4.5 39.28 4.5 39.3125 4.5C39.345 4.5 39.3774 4.5 39.4097 4.5C39.4421 4.5 39.4743 4.5 39.5066 4.5C39.5388 4.5 39.5709 4.5 39.603 4.5C39.6351 4.5 39.6671 4.5 39.6991 4.5C39.731 4.5 39.7629 4.5 39.7948 4.5C39.8266 4.5 39.8584 4.5 39.8901 4.5C39.9218 4.5 39.9534 4.5 39.985 4.5C40.0166 4.5 40.0481 4.5 40.0796 4.5C40.111 4.5 40.1424 4.5 40.1737 4.5C40.2051 4.5 40.2363 4.5 40.2675 4.5C40.2987 4.5 40.3299 4.5 40.3609 4.5C40.392 4.5 40.423 4.5 40.454 4.5C40.4849 4.5 40.5158 4.5 40.5466 4.5C40.5775 4.5 40.6082 4.5 40.6389 4.5C40.6696 4.5 40.7002 4.5 40.7308 4.5C40.7614 4.5 40.7919 4.5 40.8223 4.5C40.8528 4.5 40.8832 4.5 40.9135 4.5C40.9438 4.5 40.9741 4.5 41.0043 4.5C41.0345 4.5 41.0646 4.5 41.0947 4.5C41.1247 4.5 41.1547 4.5 41.1847 4.5C41.2146 4.5 41.2445 4.5 41.2743 4.5C41.3042 4.5 41.3339 4.5 41.3636 4.5C41.3933 4.5 41.423 4.5 41.4525 4.5C41.4821 4.5 41.5116 4.5 41.5411 4.5C41.5705 4.5 41.5999 4.5 41.6292 4.5C41.6585 4.5 41.6878 4.5 41.717 4.5C41.7462 4.5 41.7753 4.5 41.8044 4.5C41.8335 4.5 41.8625 4.5 41.8915 4.5C41.9204 4.5 41.9493 4.5 41.9781 4.5C42.007 4.5 42.0357 4.5 42.0645 4.5C42.0932 4.5 42.1218 4.5 42.1504 4.5C42.179 4.5 42.2075 4.5 42.236 4.5C42.2644 4.5 42.2928 4.5 42.3212 4.5C42.3495 4.5 42.3778 4.5 42.406 4.5C42.4342 4.5 42.4624 4.5 42.4905 4.5C42.5186 4.5 42.5466 4.5 42.5746 4.5C42.6025 4.5 42.6304 4.5 42.6583 4.5C42.6861 4.5 42.7139 4.5 42.7417 4.5C42.7694 4.5 42.7971 4.5 42.8247 4.5C42.8523 4.5 42.8798 4.5 42.9073 4.5C42.9348 4.5 42.9622 4.5 42.9896 4.5C43.0169 4.5 43.0442 4.5 43.0715 4.5C43.0987 4.5 43.1259 4.5 43.153 4.5C43.1801 4.5 43.2072 4.5 43.2342 4.5C43.2612 4.5 43.2881 4.5 43.315 4.5C43.3419 4.5 43.3687 4.5 43.3955 4.5C43.4222 4.5 43.4489 4.5 43.4756 4.5C43.5022 4.5 43.5288 4.5 43.5553 4.5C43.5818 4.5 43.6083 4.5 43.6347 4.5C43.661 4.5 43.6874 4.5 43.7137 4.5C43.7399 4.5 43.7662 4.5 43.7923 4.5C43.8185 4.5 43.8446 4.5 43.8706 4.5C43.8966 4.5 43.9226 4.5 43.9485 4.5C43.9745 4.5 44.0003 4.5 44.0261 4.5C44.0519 4.5 44.0776 4.5 44.1033 4.5C44.129 4.5 44.1546 4.5 44.1802 4.5C44.2057 4.5 44.2312 4.5 44.2567 4.5C44.2821 4.5 44.3075 4.5 44.3328 4.5C44.3581 4.5 44.3834 4.5 44.4086 4.5C44.4338 4.5 44.459 4.5 44.484 4.5C44.5091 4.5 44.5342 4.5 44.5591 4.5C44.5841 4.5 44.609 4.5 44.6338 4.5C44.6587 4.5 44.6835 4.5 44.7082 4.5C44.7329 4.5 44.7576 4.5 44.7822 4.5C44.8068 4.5 44.8314 4.5 44.8559 4.5C44.8804 4.5 44.9048 4.5 44.9292 4.5C44.9536 4.5 44.9779 4.5 45.0022 4.5C45.0264 4.5 45.0506 4.5 45.0748 4.5C45.0989 4.5 45.123 4.5 45.147 4.5C45.171 4.5 45.195 4.5 45.2189 4.5C45.2428 4.5 45.2667 4.5 45.2905 4.5C45.3143 4.5 45.338 4.5 45.3617 4.5C45.3853 4.5 45.409 4.5 45.4325 4.5C45.4561 4.5 45.4796 4.5 45.503 4.5C45.5265 4.5 45.5498 4.5 45.5732 4.5C45.5965 4.5 45.6198 4.5 45.643 4.5C45.6662 4.5 45.6893 4.5 45.7124 4.5C45.7355 4.5 45.7586 4.5 45.7815 4.5C45.8045 4.5 45.8274 4.5 45.8503 4.5C45.8732 4.5 45.896 4.5 45.9187 4.5C45.9415 4.5 45.9642 4.5 45.9868 4.5C46.0094 4.5 46.032 4.5 46.0545 4.5C46.077 4.5 46.0995 4.5 46.1219 4.5C46.1443 4.5 46.1666 4.5 46.1889 4.5C46.2112 4.5 46.2334 4.5 46.2556 4.5C46.2778 4.5 46.2999 4.5 46.322 4.5C46.344 4.5 46.366 4.5 46.388 4.5C46.4099 4.5 46.4318 4.5 46.4536 4.5C46.4755 4.5 46.4972 4.5 46.519 4.5C46.5407 4.5 46.5623 4.5 46.5839 4.5C46.6055 4.5 46.6271 4.5 46.6486 4.5C46.6701 4.5 46.6915 4.5 46.7129 4.5C46.7343 4.5 46.7556 4.5 46.7768 4.5C46.7981 4.5 46.8193 4.5 46.8405 4.5C46.8616 4.5 46.8827 4.5 46.9037 4.5C46.9248 4.5 46.9458 4.5 46.9667 4.5C46.9876 4.5 47.0085 4.5 47.0293 4.5C47.0501 4.5 47.0708 4.5 47.0915 4.5C47.1122 4.5 47.1329 4.5 47.1535 4.5C47.1741 4.5 47.1946 4.5 47.2151 4.5C47.2355 4.5 47.2559 4.5 47.2763 4.5C47.2967 4.5 47.317 4.5 47.3372 4.5C47.3575 4.5 47.3777 4.5 47.3978 4.5C47.4179 4.5 47.438 4.5 47.4581 4.5C47.4781 4.5 47.4981 4.5 47.518 4.5C47.5379 4.5 47.5577 4.5 47.5775 4.5C47.5974 4.5 47.6171 4.5 47.6368 4.5C47.6565 4.5 47.6761 4.5 47.6957 4.5C47.7153 4.5 47.7348 4.5 47.7543 4.5C47.7738 4.5 47.7932 4.5 47.8125 4.5C47.8319 4.5 47.8512 4.5 47.8704 4.5C47.8897 4.5 47.9089 4.5 47.928 4.5C47.9472 4.5 47.9662 4.5 47.9853 4.5C48.0043 4.5 48.0233 4.5 48.0422 4.5C48.0611 4.5 48.08 4.5 48.0988 4.5C48.1176 4.5 48.1364 4.5 48.1551 4.5C48.1738 4.5 48.1924 4.5 48.211 4.5C48.2296 4.5 48.2481 4.5 48.2666 4.5C48.2851 4.5 48.3035 4.5 48.3219 4.5C48.3402 4.5 48.3586 4.5 48.3768 4.5C48.3951 4.5 48.4133 4.5 48.4314 4.5C48.4496 4.5 48.4677 4.5 48.4857 4.5C48.5038 4.5 48.5218 4.5 48.5397 4.5C48.5576 4.5 48.5755 4.5 48.5934 4.5C48.6112 4.5 48.629 4.5 48.6467 4.5C48.6644 4.5 48.6821 4.5 48.6997 4.5C48.7173 4.5 48.7348 4.5 48.7523 4.5C48.7698 4.5 48.7873 4.5 48.8047 4.5C48.8221 4.5 48.8394 4.5 48.8567 4.5C48.874 4.5 48.8912 4.5 48.9084 4.5C48.9256 4.5 48.9427 4.5 48.9598 4.5C48.9769 4.5 48.9939 4.5 49.0108 4.5C49.0278 4.5 49.0447 4.5 49.0616 4.5C49.0784 4.5 49.0952 4.5 49.112 4.5C49.1287 4.5 49.1454 4.5 49.1621 4.5C49.1787 4.5 49.1953 4.5 49.2119 4.5C49.2284 4.5 49.2449 4.5 49.2613 4.5C49.2777 4.5 49.2941 4.5 49.3105 4.5C49.3268 4.5 49.343 4.5 49.3593 4.5C49.3755 4.5 49.3917 4.5 49.4078 4.5C49.4239 4.5 49.4399 4.5 49.4559 4.5C49.472 4.5 49.4879 4.5 49.5038 4.5C49.5197 4.5 49.5356 4.5 49.5514 4.5C49.5672 4.5 49.5829 4.5 49.5986 4.5C49.6143 4.5 49.6299 4.5 49.6455 4.5C49.6611 4.5 49.6766 4.5 49.6921 4.5C49.7076 4.5 49.723 4.5 49.7384 4.5C49.7538 4.5 49.7691 4.5 49.7844 4.5C49.7996 4.5 49.8148 4.5 49.83 4.5C49.8452 4.5 49.8603 4.5 49.8754 4.5C49.8904 4.5 49.9054 4.5 49.9204 4.5C49.9353 4.5 49.9502 4.5 49.9651 4.5C49.98 4.5 49.9948 4.5 50.0095 4.5C50.0243 4.5 50.039 4.5 50.0536 4.5C50.0682 4.5 50.0828 4.5 50.0974 4.5C50.1119 4.5 50.1264 4.5 50.1409 4.5C50.1553 4.5 50.1697 4.5 50.184 4.5C50.1984 4.5 50.2126 4.5 50.2269 4.5C50.2411 4.5 50.2553 4.5 50.2694 4.5C50.2835 4.5 50.2976 4.5 50.3116 4.5C50.3257 4.5 50.3396 4.5 50.3536 4.5C50.3675 4.5 50.3814 4.5 50.3952 4.5C50.409 4.5 50.4228 4.5 50.4365 4.5C50.4502 4.5 50.4639 4.5 50.4775 4.5C50.4911 4.5 50.5047 4.5 50.5182 4.5C50.5317 4.5 50.5452 4.5 50.5586 4.5C50.572 4.5 50.5854 4.5 50.5987 4.5C50.612 4.5 50.6253 4.5 50.6385 4.5C50.6517 4.5 50.6648 4.5 50.6779 4.5C50.691 4.5 50.7041 4.5 50.7171 4.5C50.7301 4.5 50.7431 4.5 50.756 4.5C50.7689 4.5 50.7817 4.5 50.7945 4.5C50.8074 4.5 50.8201 4.5 50.8328 4.5C50.8455 4.5 50.8582 4.5 50.8708 4.5C50.8834 4.5 50.8959 4.5 50.9084 4.5C50.9209 4.5 50.9334 4.5 50.9458 4.5C50.9582 4.5 50.9705 4.5 50.9828 4.5C50.9951 4.5 51.0074 4.5 51.0196 4.5C51.0318 4.5 51.044 4.5 51.0561 4.5C51.0682 4.5 51.0802 4.5 51.0922 4.5C51.1042 4.5 51.1162 4.5 51.1281 4.5C51.14 4.5 51.1518 4.5 51.1636 4.5C51.1754 4.5 51.1872 4.5 51.1989 4.5C51.2106 4.5 51.2223 4.5 51.2339 4.5C51.2455 4.5 51.257 4.5 51.2685 4.5C51.28 4.5 51.2915 4.5 51.3029 4.5C51.3143 4.5 51.3257 4.5 51.337 4.5C51.3483 4.5 51.3595 4.5 51.3708 4.5C51.382 4.5 51.3931 4.5 51.4042 4.5C51.4154 4.5 51.4264 4.5 51.4374 4.5C51.4484 4.5 51.4594 4.5 51.4703 4.5C51.4812 4.5 51.4921 4.5 51.5029 4.5C51.5137 4.5 51.5245 4.5 51.5352 4.5C51.546 4.5 51.5566 4.5 51.5673 4.5C51.5779 4.5 51.5885 4.5 51.599 4.5C51.6095 4.5 51.62 4.5 51.6304 4.5C51.6408 4.5 51.6512 4.5 51.6616 4.5C51.6719 4.5 51.6822 4.5 51.6924 4.5C51.7026 4.5 51.7128 4.5 51.723 4.5C51.7331 4.5 51.7432 4.5 51.7532 4.5C51.7633 4.5 51.7733 4.5 51.7832 4.5C51.7932 4.5 51.8031 4.5 51.8129 4.5C51.8228 4.5 51.8326 4.5 51.8423 4.5C51.8521 4.5 51.8618 4.5 51.8714 4.5C51.8811 4.5 51.8907 4.5 51.9002 4.5C51.9098 4.5 51.9193 4.5 51.9288 4.5C51.9382 4.5 51.9477 4.5 51.957 4.5C51.9664 4.5 51.9757 4.5 51.985 4.5C51.9943 4.5 52.0035 4.5 52.0127 4.5C52.0219 4.5 52.031 4.5 52.0401 4.5C52.0492 4.5 52.0582 4.5 52.0672 4.5C52.0762 4.5 52.0851 4.5 52.094 4.5C52.1029 4.5 52.1118 4.5 52.1206 4.5C52.1294 4.5 52.1381 4.5 52.1468 4.5C52.1555 4.5 52.1642 4.5 52.1728 4.5C52.1814 4.5 52.19 4.5 52.1985 4.5C52.207 4.5 52.2155 4.5 52.2239 4.5C52.2323 4.5 52.2407 4.5 52.249 4.5C52.2574 4.5 52.2656 4.5 52.2739 4.5C52.2821 4.5 52.2903 4.5 52.2984 4.5C52.3066 4.5 52.3147 4.5 52.3227 4.5C52.3308 4.5 52.3388 4.5 52.3467 4.5C52.3547 4.5 52.3626 4.5 52.3705 4.5C52.3783 4.5 52.3862 4.5 52.3939 4.5C52.4017 4.5 52.4094 4.5 52.4171 4.5C52.4248 4.5 52.4324 4.5 52.44 4.5C52.4476 4.5 52.4551 4.5 52.4626 4.5C52.4701 4.5 52.4775 4.5 52.4849 4.5C52.4923 4.5 52.4997 4.5 52.507 4.5C52.5143 4.5 52.5216 4.5 52.5288 4.5C52.536 4.5 52.5432 4.5 52.5503 4.5C52.5574 4.5 52.5645 4.5 52.5715 4.5C52.5786 4.5 52.5856 4.5 52.5925 4.5C52.5995 4.5 52.6064 4.5 52.6132 4.5C52.6201 4.5 52.6269 4.5 52.6336 4.5C52.6404 4.5 52.6471 4.5 52.6538 4.5C52.6604 4.5 52.6671 4.5 52.6736 4.5C52.6802 4.5 52.6867 4.5 52.6932 4.5C52.6997 4.5 52.7062 4.5 52.7126 4.5C52.719 4.5 52.7253 4.5 52.7316 4.5C52.7379 4.5 52.7442 4.5 52.7504 4.5C52.7566 4.5 52.7628 4.5 52.7689 4.5C52.775 4.5 52.7811 4.5 52.7872 4.5C52.7932 4.5 52.7992 4.5 52.8051 4.5C52.8111 4.5 52.817 4.5 52.8228 4.5C52.8287 4.5 52.8345 4.5 52.8403 4.5C52.846 4.5 52.8518 4.5 52.8574 4.5C52.8631 4.5 52.8688 4.5 52.8744 4.5C52.8799 4.5 52.8855 4.5 52.891 4.5C52.8965 4.5 52.9019 4.5 52.9074 4.5C52.9128 4.5 52.9181 4.5 52.9235 4.5C52.9288 4.5 52.9341 4.5 52.9393 4.5C52.9445 4.5 52.9497 4.5 52.9549 4.5C52.96 4.5 52.9651 4.5 52.9702 4.5C52.9752 4.5 52.9802 4.5 52.9852 4.5C52.9902 4.5 52.9951 4.5 53 4.5V3.5C52.9951 3.5 52.9902 3.5 52.9852 3.5C52.9802 3.5 52.9752 3.5 52.9702 3.5C52.9651 3.5 52.96 3.5 52.9549 3.5C52.9497 3.5 52.9445 3.5 52.9393 3.5C52.9341 3.5 52.9288 3.5 52.9235 3.5C52.9181 3.5 52.9128 3.5 52.9074 3.5C52.9019 3.5 52.8965 3.5 52.891 3.5C52.8855 3.5 52.8799 3.5 52.8744 3.5C52.8688 3.5 52.8631 3.5 52.8574 3.5C52.8518 3.5 52.846 3.5 52.8403 3.5C52.8345 3.5 52.8287 3.5 52.8228 3.5C52.817 3.5 52.8111 3.5 52.8051 3.5C52.7992 3.5 52.7932 3.5 52.7872 3.5C52.7811 3.5 52.775 3.5 52.7689 3.5C52.7628 3.5 52.7566 3.5 52.7504 3.5C52.7442 3.5 52.7379 3.5 52.7316 3.5C52.7253 3.5 52.719 3.5 52.7126 3.5C52.7062 3.5 52.6997 3.5 52.6932 3.5C52.6867 3.5 52.6802 3.5 52.6736 3.5C52.6671 3.5 52.6604 3.5 52.6538 3.5C52.6471 3.5 52.6404 3.5 52.6336 3.5C52.6269 3.5 52.6201 3.5 52.6132 3.5C52.6064 3.5 52.5995 3.5 52.5925 3.5C52.5856 3.5 52.5786 3.5 52.5715 3.5C52.5645 3.5 52.5574 3.5 52.5503 3.5C52.5432 3.5 52.536 3.5 52.5288 3.5C52.5216 3.5 52.5143 3.5 52.507 3.5C52.4997 3.5 52.4923 3.5 52.4849 3.5C52.4775 3.5 52.4701 3.5 52.4626 3.5C52.4551 3.5 52.4476 3.5 52.44 3.5C52.4324 3.5 52.4248 3.5 52.4171 3.5C52.4094 3.5 52.4017 3.5 52.3939 3.5C52.3862 3.5 52.3783 3.5 52.3705 3.5C52.3626 3.5 52.3547 3.5 52.3467 3.5C52.3388 3.5 52.3308 3.5 52.3227 3.5C52.3147 3.5 52.3066 3.5 52.2984 3.5C52.2903 3.5 52.2821 3.5 52.2739 3.5C52.2656 3.5 52.2574 3.5 52.249 3.5C52.2407 3.5 52.2323 3.5 52.2239 3.5C52.2155 3.5 52.207 3.5 52.1985 3.5C52.19 3.5 52.1814 3.5 52.1728 3.5C52.1642 3.5 52.1555 3.5 52.1468 3.5C52.1381 3.5 52.1294 3.5 52.1206 3.5C52.1118 3.5 52.1029 3.5 52.094 3.5C52.0851 3.5 52.0762 3.5 52.0672 3.5C52.0582 3.5 52.0492 3.5 52.0401 3.5C52.031 3.5 52.0219 3.5 52.0127 3.5C52.0035 3.5 51.9943 3.5 51.985 3.5C51.9757 3.5 51.9664 3.5 51.957 3.5C51.9477 3.5 51.9382 3.5 51.9288 3.5C51.9193 3.5 51.9098 3.5 51.9002 3.5C51.8907 3.5 51.8811 3.5 51.8714 3.5C51.8618 3.5 51.8521 3.5 51.8423 3.5C51.8326 3.5 51.8228 3.5 51.8129 3.5C51.8031 3.5 51.7932 3.5 51.7832 3.5C51.7733 3.5 51.7633 3.5 51.7532 3.5C51.7432 3.5 51.7331 3.5 51.723 3.5C51.7128 3.5 51.7026 3.5 51.6924 3.5C51.6822 3.5 51.6719 3.5 51.6616 3.5C51.6512 3.5 51.6408 3.5 51.6304 3.5C51.62 3.5 51.6095 3.5 51.599 3.5C51.5885 3.5 51.5779 3.5 51.5673 3.5C51.5566 3.5 51.546 3.5 51.5352 3.5C51.5245 3.5 51.5137 3.5 51.5029 3.5C51.4921 3.5 51.4812 3.5 51.4703 3.5C51.4594 3.5 51.4484 3.5 51.4374 3.5C51.4264 3.5 51.4154 3.5 51.4042 3.5C51.3931 3.5 51.382 3.5 51.3708 3.5C51.3595 3.5 51.3483 3.5 51.337 3.5C51.3257 3.5 51.3143 3.5 51.3029 3.5C51.2915 3.5 51.28 3.5 51.2685 3.5C51.257 3.5 51.2455 3.5 51.2339 3.5C51.2223 3.5 51.2106 3.5 51.1989 3.5C51.1872 3.5 51.1754 3.5 51.1636 3.5C51.1518 3.5 51.14 3.5 51.1281 3.5C51.1162 3.5 51.1042 3.5 51.0922 3.5C51.0802 3.5 51.0682 3.5 51.0561 3.5C51.044 3.5 51.0318 3.5 51.0196 3.5C51.0074 3.5 50.9951 3.5 50.9828 3.5C50.9705 3.5 50.9582 3.5 50.9458 3.5C50.9334 3.5 50.9209 3.5 50.9084 3.5C50.8959 3.5 50.8834 3.5 50.8708 3.5C50.8582 3.5 50.8455 3.5 50.8328 3.5C50.8201 3.5 50.8074 3.5 50.7945 3.5C50.7817 3.5 50.7689 3.5 50.756 3.5C50.7431 3.5 50.7301 3.5 50.7171 3.5C50.7041 3.5 50.691 3.5 50.6779 3.5C50.6648 3.5 50.6517 3.5 50.6385 3.5C50.6253 3.5 50.612 3.5 50.5987 3.5C50.5854 3.5 50.572 3.5 50.5586 3.5C50.5452 3.5 50.5317 3.5 50.5182 3.5C50.5047 3.5 50.4911 3.5 50.4775 3.5C50.4639 3.5 50.4502 3.5 50.4365 3.5C50.4228 3.5 50.409 3.5 50.3952 3.5C50.3814 3.5 50.3675 3.5 50.3536 3.5C50.3396 3.5 50.3257 3.5 50.3116 3.5C50.2976 3.5 50.2835 3.5 50.2694 3.5C50.2553 3.5 50.2411 3.5 50.2269 3.5C50.2126 3.5 50.1984 3.5 50.184 3.5C50.1697 3.5 50.1553 3.5 50.1409 3.5C50.1264 3.5 50.1119 3.5 50.0974 3.5C50.0828 3.5 50.0682 3.5 50.0536 3.5C50.039 3.5 50.0243 3.5 50.0095 3.5C49.9948 3.5 49.98 3.5 49.9651 3.5C49.9502 3.5 49.9353 3.5 49.9204 3.5C49.9054 3.5 49.8904 3.5 49.8754 3.5C49.8603 3.5 49.8452 3.5 49.83 3.5C49.8148 3.5 49.7996 3.5 49.7844 3.5C49.7691 3.5 49.7538 3.5 49.7384 3.5C49.723 3.5 49.7076 3.5 49.6921 3.5C49.6766 3.5 49.6611 3.5 49.6455 3.5C49.6299 3.5 49.6143 3.5 49.5986 3.5C49.5829 3.5 49.5672 3.5 49.5514 3.5C49.5356 3.5 49.5197 3.5 49.5038 3.5C49.4879 3.5 49.472 3.5 49.4559 3.5C49.4399 3.5 49.4239 3.5 49.4078 3.5C49.3917 3.5 49.3755 3.5 49.3593 3.5C49.343 3.5 49.3268 3.5 49.3105 3.5C49.2941 3.5 49.2777 3.5 49.2613 3.5C49.2449 3.5 49.2284 3.5 49.2119 3.5C49.1953 3.5 49.1787 3.5 49.1621 3.5C49.1454 3.5 49.1287 3.5 49.112 3.5C49.0952 3.5 49.0784 3.5 49.0616 3.5C49.0447 3.5 49.0278 3.5 49.0108 3.5C48.9939 3.5 48.9769 3.5 48.9598 3.5C48.9427 3.5 48.9256 3.5 48.9084 3.5C48.8912 3.5 48.874 3.5 48.8567 3.5C48.8394 3.5 48.8221 3.5 48.8047 3.5C48.7873 3.5 48.7698 3.5 48.7523 3.5C48.7348 3.5 48.7173 3.5 48.6997 3.5C48.6821 3.5 48.6644 3.5 48.6467 3.5C48.629 3.5 48.6112 3.5 48.5934 3.5C48.5755 3.5 48.5576 3.5 48.5397 3.5C48.5218 3.5 48.5038 3.5 48.4857 3.5C48.4677 3.5 48.4496 3.5 48.4314 3.5C48.4133 3.5 48.3951 3.5 48.3768 3.5C48.3586 3.5 48.3402 3.5 48.3219 3.5C48.3035 3.5 48.2851 3.5 48.2666 3.5C48.2481 3.5 48.2296 3.5 48.211 3.5C48.1924 3.5 48.1738 3.5 48.1551 3.5C48.1364 3.5 48.1176 3.5 48.0988 3.5C48.08 3.5 48.0611 3.5 48.0422 3.5C48.0233 3.5 48.0043 3.5 47.9853 3.5C47.9662 3.5 47.9472 3.5 47.928 3.5C47.9089 3.5 47.8897 3.5 47.8704 3.5C47.8512 3.5 47.8319 3.5 47.8125 3.5C47.7932 3.5 47.7738 3.5 47.7543 3.5C47.7348 3.5 47.7153 3.5 47.6957 3.5C47.6761 3.5 47.6565 3.5 47.6368 3.5C47.6171 3.5 47.5974 3.5 47.5775 3.5C47.5577 3.5 47.5379 3.5 47.518 3.5C47.4981 3.5 47.4781 3.5 47.4581 3.5C47.438 3.5 47.4179 3.5 47.3978 3.5C47.3777 3.5 47.3575 3.5 47.3372 3.5C47.317 3.5 47.2967 3.5 47.2763 3.5C47.2559 3.5 47.2355 3.5 47.2151 3.5C47.1946 3.5 47.1741 3.5 47.1535 3.5C47.1329 3.5 47.1122 3.5 47.0915 3.5C47.0708 3.5 47.0501 3.5 47.0293 3.5C47.0085 3.5 46.9876 3.5 46.9667 3.5C46.9458 3.5 46.9248 3.5 46.9037 3.5C46.8827 3.5 46.8616 3.5 46.8405 3.5C46.8193 3.5 46.7981 3.5 46.7768 3.5C46.7556 3.5 46.7343 3.5 46.7129 3.5C46.6915 3.5 46.6701 3.5 46.6486 3.5C46.6271 3.5 46.6055 3.5 46.5839 3.5C46.5623 3.5 46.5407 3.5 46.519 3.5C46.4972 3.5 46.4755 3.5 46.4536 3.5C46.4318 3.5 46.4099 3.5 46.388 3.5C46.366 3.5 46.344 3.5 46.322 3.5C46.2999 3.5 46.2778 3.5 46.2556 3.5C46.2334 3.5 46.2112 3.5 46.1889 3.5C46.1666 3.5 46.1443 3.5 46.1219 3.5C46.0995 3.5 46.077 3.5 46.0545 3.5C46.032 3.5 46.0094 3.5 45.9868 3.5C45.9642 3.5 45.9415 3.5 45.9187 3.5C45.896 3.5 45.8732 3.5 45.8503 3.5C45.8274 3.5 45.8045 3.5 45.7815 3.5C45.7586 3.5 45.7355 3.5 45.7124 3.5C45.6893 3.5 45.6662 3.5 45.643 3.5C45.6198 3.5 45.5965 3.5 45.5732 3.5C45.5498 3.5 45.5265 3.5 45.503 3.5C45.4796 3.5 45.4561 3.5 45.4325 3.5C45.409 3.5 45.3853 3.5 45.3617 3.5C45.338 3.5 45.3143 3.5 45.2905 3.5C45.2667 3.5 45.2428 3.5 45.2189 3.5C45.195 3.5 45.171 3.5 45.147 3.5C45.123 3.5 45.0989 3.5 45.0748 3.5C45.0506 3.5 45.0264 3.5 45.0022 3.5C44.9779 3.5 44.9536 3.5 44.9292 3.5C44.9048 3.5 44.8804 3.5 44.8559 3.5C44.8314 3.5 44.8068 3.5 44.7822 3.5C44.7576 3.5 44.7329 3.5 44.7082 3.5C44.6835 3.5 44.6587 3.5 44.6338 3.5C44.609 3.5 44.5841 3.5 44.5591 3.5C44.5342 3.5 44.5091 3.5 44.484 3.5C44.459 3.5 44.4338 3.5 44.4086 3.5C44.3834 3.5 44.3581 3.5 44.3328 3.5C44.3075 3.5 44.2821 3.5 44.2567 3.5C44.2312 3.5 44.2057 3.5 44.1802 3.5C44.1546 3.5 44.129 3.5 44.1033 3.5C44.0776 3.5 44.0519 3.5 44.0261 3.5C44.0003 3.5 43.9745 3.5 43.9485 3.5C43.9226 3.5 43.8966 3.5 43.8706 3.5C43.8446 3.5 43.8185 3.5 43.7923 3.5C43.7662 3.5 43.7399 3.5 43.7137 3.5C43.6874 3.5 43.661 3.5 43.6347 3.5C43.6083 3.5 43.5818 3.5 43.5553 3.5C43.5288 3.5 43.5022 3.5 43.4756 3.5C43.4489 3.5 43.4222 3.5 43.3955 3.5C43.3687 3.5 43.3419 3.5 43.315 3.5C43.2881 3.5 43.2612 3.5 43.2342 3.5C43.2072 3.5 43.1801 3.5 43.153 3.5C43.1259 3.5 43.0987 3.5 43.0715 3.5C43.0442 3.5 43.0169 3.5 42.9896 3.5C42.9622 3.5 42.9348 3.5 42.9073 3.5C42.8798 3.5 42.8523 3.5 42.8247 3.5C42.7971 3.5 42.7694 3.5 42.7417 3.5C42.7139 3.5 42.6861 3.5 42.6583 3.5C42.6304 3.5 42.6025 3.5 42.5746 3.5C42.5466 3.5 42.5186 3.5 42.4905 3.5C42.4624 3.5 42.4342 3.5 42.406 3.5C42.3778 3.5 42.3495 3.5 42.3212 3.5C42.2928 3.5 42.2644 3.5 42.236 3.5C42.2075 3.5 42.179 3.5 42.1504 3.5C42.1218 3.5 42.0932 3.5 42.0645 3.5C42.0357 3.5 42.007 3.5 41.9781 3.5C41.9493 3.5 41.9204 3.5 41.8915 3.5C41.8625 3.5 41.8335 3.5 41.8044 3.5C41.7753 3.5 41.7462 3.5 41.717 3.5C41.6878 3.5 41.6585 3.5 41.6292 3.5C41.5999 3.5 41.5705 3.5 41.5411 3.5C41.5116 3.5 41.4821 3.5 41.4525 3.5C41.423 3.5 41.3933 3.5 41.3636 3.5C41.3339 3.5 41.3042 3.5 41.2743 3.5C41.2445 3.5 41.2146 3.5 41.1847 3.5C41.1547 3.5 41.1247 3.5 41.0947 3.5C41.0646 3.5 41.0345 3.5 41.0043 3.5C40.9741 3.5 40.9438 3.5 40.9135 3.5C40.8832 3.5 40.8528 3.5 40.8223 3.5C40.7919 3.5 40.7614 3.5 40.7308 3.5C40.7002 3.5 40.6696 3.5 40.6389 3.5C40.6082 3.5 40.5775 3.5 40.5466 3.5C40.5158 3.5 40.4849 3.5 40.454 3.5C40.423 3.5 40.392 3.5 40.3609 3.5C40.3299 3.5 40.2987 3.5 40.2675 3.5C40.2363 3.5 40.2051 3.5 40.1737 3.5C40.1424 3.5 40.111 3.5 40.0796 3.5C40.0481 3.5 40.0166 3.5 39.985 3.5C39.9534 3.5 39.9218 3.5 39.8901 3.5C39.8584 3.5 39.8266 3.5 39.7948 3.5C39.7629 3.5 39.731 3.5 39.6991 3.5C39.6671 3.5 39.6351 3.5 39.603 3.5C39.5709 3.5 39.5388 3.5 39.5066 3.5C39.4743 3.5 39.4421 3.5 39.4097 3.5C39.3774 3.5 39.345 3.5 39.3125 3.5C39.28 3.5 39.2475 3.5 39.2149 3.5C39.1823 3.5 39.1496 3.5 39.1169 3.5C39.0842 3.5 39.0514 3.5 39.0185 3.5C38.9857 3.5 38.9528 3.5 38.9198 3.5C38.8868 3.5 38.8537 3.5 38.8206 3.5C38.7875 3.5 38.7543 3.5 38.7211 3.5C38.6879 3.5 38.6546 3.5 38.6212 3.5C38.5878 3.5 38.5544 3.5 38.5209 3.5C38.4874 3.5 38.4538 3.5 38.4202 3.5C38.3866 3.5 38.3529 3.5 38.3191 3.5C38.2854 3.5 38.2516 3.5 38.2177 3.5C38.1838 3.5 38.1498 3.5 38.1158 3.5C38.0818 3.5 38.0477 3.5 38.0136 3.5C37.9794 3.5 37.9452 3.5 37.9109 3.5C37.8767 3.5 37.8423 3.5 37.8079 3.5C37.7735 3.5 37.739 3.5 37.7045 3.5C37.67 3.5 37.6354 3.5 37.6007 3.5C37.566 3.5 37.5313 3.5 37.4965 3.5C37.4617 3.5 37.4269 3.5 37.3919 3.5C37.357 3.5 37.322 3.5 37.287 3.5C37.2519 3.5 37.2168 3.5 37.1816 3.5C37.1464 3.5 37.1111 3.5 37.0758 3.5C37.0405 3.5 37.0051 3.5 36.9697 3.5C36.9342 3.5 36.8987 3.5 36.8631 3.5C36.8275 3.5 36.7919 3.5 36.7562 3.5C36.7205 3.5 36.6847 3.5 36.6488 3.5C36.613 3.5 36.5771 3.5 36.5411 3.5C36.5051 3.5 36.4691 3.5 36.433 3.5C36.3969 3.5 36.3607 3.5 36.3244 3.5C36.2882 3.5 36.2519 3.5 36.2155 3.5C36.1791 3.5 36.1427 3.5 36.1062 3.5C36.0697 3.5 36.0331 3.5 35.9965 3.5C35.9598 3.5 35.9231 3.5 35.8863 3.5C35.8496 3.5 35.8127 3.5 35.7758 3.5C35.7389 3.5 35.7019 3.5 35.6649 3.5C35.6279 3.5 35.5908 3.5 35.5536 3.5C35.5164 3.5 35.4792 3.5 35.4419 3.5C35.4046 3.5 35.3672 3.5 35.3298 3.5C35.2923 3.5 35.2548 3.5 35.2172 3.5C35.1797 3.5 35.142 3.5 35.1043 3.5C35.0666 3.5 35.0288 3.5 34.991 3.5C34.9531 3.5 34.9152 3.5 34.8773 3.5C34.8393 3.5 34.8012 3.5 34.7631 3.5C34.725 3.5 34.6868 3.5 34.6486 3.5C34.6103 3.5 34.572 3.5 34.5337 3.5C34.4953 3.5 34.4568 3.5 34.4183 3.5C34.3798 3.5 34.3412 3.5 34.3026 3.5C34.2639 3.5 34.2252 3.5 34.1864 3.5C34.1476 3.5 34.1088 3.5 34.0699 3.5C34.0309 3.5 33.992 3.5 33.9529 3.5C33.9138 3.5 33.8747 3.5 33.8355 3.5C33.7963 3.5 33.7571 3.5 33.7177 3.5C33.6784 3.5 33.639 3.5 33.5996 3.5C33.5601 3.5 33.5206 3.5 33.481 3.5C33.4414 3.5 33.4017 3.5 33.362 3.5C33.3222 3.5 33.2824 3.5 33.2425 3.5C33.2027 3.5 33.1627 3.5 33.1227 3.5C33.0827 3.5 33.0426 3.5 33.0025 3.5C32.9623 3.5 32.9221 3.5 32.8819 3.5C32.8416 3.5 32.8012 3.5 32.7608 3.5C32.7204 3.5 32.6799 3.5 32.6393 3.5C32.5988 3.5 32.5581 3.5 32.5175 3.5C32.4768 3.5 32.436 3.5 32.3952 3.5C32.3543 3.5 32.3134 3.5 32.2725 3.5C32.2315 3.5 32.1905 3.5 32.1493 3.5C32.1082 3.5 32.0671 3.5 32.0258 3.5C31.9846 3.5 31.9433 3.5 31.9019 3.5C31.8605 3.5 31.819 3.5 31.7775 3.5C31.736 3.5 31.6944 3.5 31.6527 3.5C31.6111 3.5 31.5693 3.5 31.5275 3.5C31.4857 3.5 31.4439 3.5 31.4019 3.5C31.36 3.5 31.318 3.5 31.2759 3.5C31.2338 3.5 31.1917 3.5 31.1495 3.5C31.1073 3.5 31.065 3.5 31.0226 3.5C30.9803 3.5 30.9378 3.5 30.8953 3.5C30.8528 3.5 30.8103 3.5 30.7676 3.5C30.725 3.5 30.6823 3.5 30.6395 3.5C30.5968 3.5 30.5539 3.5 30.511 3.5C30.4681 3.5 30.4251 3.5 30.382 3.5C30.339 3.5 30.2959 3.5 30.2527 3.5C30.2095 3.5 30.1662 3.5 30.1229 3.5C30.0795 3.5 30.0361 3.5 29.9927 3.5C29.9492 3.5 29.9056 3.5 29.862 3.5C29.8184 3.5 29.7747 3.5 29.731 3.5C29.6872 3.5 29.6434 3.5 29.5995 3.5C29.5556 3.5 29.5116 3.5 29.4676 3.5C29.4235 3.5 29.3794 3.5 29.3352 3.5C29.2911 3.5 29.2468 3.5 29.2025 3.5C29.1582 3.5 29.1138 3.5 29.0693 3.5C29.0248 3.5 28.9803 3.5 28.9357 3.5C28.8911 3.5 28.8464 3.5 28.8017 3.5C28.7569 3.5 28.7121 3.5 28.6672 3.5C28.6223 3.5 28.5774 3.5 28.5323 3.5C28.4873 3.5 28.4422 3.5 28.397 3.5C28.3519 3.5 28.3066 3.5 28.2613 3.5C28.216 3.5 28.1706 3.5 28.1251 3.5C28.0797 3.5 28.0341 3.5 27.9885 3.5C27.9429 3.5 27.8973 3.5 27.8515 3.5C27.8058 3.5 27.7599 3.5 27.7141 3.5C27.6682 3.5 27.6222 3.5 27.5762 3.5C27.5301 3.5 27.484 3.5 27.4379 3.5C27.3917 3.5 27.3454 3.5 27.2991 3.5C27.2528 3.5 27.2064 3.5 27.1599 3.5C27.1135 3.5 27.0669 3.5 27.0203 3.5C26.9737 3.5 26.9271 3.5 26.8803 3.5C26.8335 3.5 26.7867 3.5 26.7398 3.5C26.6929 3.5 26.646 3.5 26.5989 3.5C26.5519 3.5 26.5048 3.5 26.4576 3.5C26.4104 3.5 26.3631 3.5 26.3158 3.5C26.2685 3.5 26.2211 3.5 26.1736 3.5C26.1261 3.5 26.0786 3.5 26.031 3.5C25.9834 3.5 25.9357 3.5 25.8879 3.5C25.8401 3.5 25.7923 3.5 25.7444 3.5C25.6965 3.5 25.6485 3.5 25.6004 3.5C25.5524 3.5 25.5042 3.5 25.456 3.5C25.4078 3.5 25.3596 3.5 25.3112 3.5C25.2629 3.5 25.2145 3.5 25.166 3.5C25.1175 3.5 25.0689 3.5 25.0203 3.5C24.9716 3.5 24.9229 3.5 24.8741 3.5C24.8253 3.5 24.7765 3.5 24.7275 3.5C24.6786 3.5 24.6296 3.5 24.5805 3.5C24.5315 3.5 24.4823 3.5 24.4331 3.5C24.3838 3.5 24.3345 3.5 24.2852 3.5C24.2358 3.5 24.1864 3.5 24.1368 3.5C24.0873 3.5 24.0377 3.5 23.9881 3.5C23.9384 3.5 23.8886 3.5 23.8388 3.5C23.789 3.5 23.7391 3.5 23.6892 3.5C23.6392 3.5 23.5892 3.5 23.5391 3.5C23.489 3.5 23.4388 3.5 23.3885 3.5C23.3383 3.5 23.2879 3.5 23.2375 3.5C23.1871 3.5 23.1366 3.5 23.0861 3.5C23.0355 3.5 22.9849 3.5 22.9342 3.5C22.8835 3.5 22.8327 3.5 22.7819 3.5C22.731 3.5 22.6801 3.5 22.6291 3.5C22.5781 3.5 22.527 3.5 22.4759 3.5C22.4247 3.5 22.3735 3.5 22.3222 3.5C22.2709 3.5 22.2195 3.5 22.1681 3.5C22.1166 3.5 22.0651 3.5 22.0135 3.5C21.9619 3.5 21.9102 3.5 21.8585 3.5C21.8068 3.5 21.7549 3.5 21.703 3.5C21.6511 3.5 21.5992 3.5 21.5471 3.5C21.4951 3.5 21.443 3.5 21.3908 3.5C21.3386 3.5 21.2863 3.5 21.234 3.5C21.1816 3.5 21.1292 3.5 21.0767 3.5C21.0242 3.5 20.9716 3.5 20.919 3.5C20.8664 3.5 20.8136 3.5 20.7608 3.5C20.708 3.5 20.6552 3.5 20.6022 3.5C20.5493 3.5 20.4963 3.5 20.4432 3.5C20.3901 3.5 20.3369 3.5 20.2836 3.5C20.2304 3.5 20.1771 3.5 20.1237 3.5C20.0703 3.5 20.0168 3.5 19.9632 3.5C19.9097 3.5 19.8561 3.5 19.8024 3.5C19.7487 3.5 19.6949 3.5 19.641 3.5C19.5872 3.5 19.5332 3.5 19.4792 3.5C19.4252 3.5 19.3711 3.5 19.317 3.5C19.2628 3.5 19.2086 3.5 19.1543 3.5C19.1 3.5 19.0456 3.5 18.9911 3.5C18.9367 3.5 18.8821 3.5 18.8275 3.5C18.7729 3.5 18.7182 3.5 18.6634 3.5C18.6087 3.5 18.5538 3.5 18.4989 3.5C18.444 3.5 18.389 3.5 18.3339 3.5C18.2788 3.5 18.2237 3.5 18.1685 3.5C18.1132 3.5 18.0579 3.5 18.0026 3.5C17.9472 3.5 17.8917 3.5 17.8362 3.5C17.7807 3.5 17.725 3.5 17.6694 3.5C17.6137 3.5 17.5579 3.5 17.5021 3.5C17.4462 3.5 17.3903 3.5 17.3343 3.5C17.2783 3.5 17.2223 3.5 17.1661 3.5C17.11 3.5 17.0537 3.5 16.9974 3.5C16.9411 3.5 16.8848 3.5 16.8283 3.5C16.7718 3.5 16.7153 3.5 16.6587 3.5C16.6021 3.5 16.5454 3.5 16.4886 3.5C16.4319 3.5 16.375 3.5 16.3181 3.5C16.2612 3.5 16.2042 3.5 16.1471 3.5C16.09 3.5 16.0329 3.5 15.9756 3.5C15.9184 3.5 15.8611 3.5 15.8037 3.5C15.7463 3.5 15.6889 3.5 15.6313 3.5C15.5738 3.5 15.5162 3.5 15.4585 3.5C15.4008 3.5 15.343 3.5 15.2852 3.5C15.2273 3.5 15.1694 3.5 15.1114 3.5C15.0534 3.5 14.9953 3.5 14.9371 3.5C14.8789 3.5 14.8207 3.5 14.7624 3.5C14.7041 3.5 14.6457 3.5 14.5872 3.5C14.5287 3.5 14.4702 3.5 14.4115 3.5C14.3529 3.5 14.2942 3.5 14.2354 3.5C14.1766 3.5 14.1177 3.5 14.0588 3.5C13.9998 3.5 13.9408 3.5 13.8817 3.5C13.8226 3.5 13.7634 3.5 13.7042 3.5C13.6449 3.5 13.5856 3.5 13.5261 3.5C13.4667 3.5 13.4072 3.5 13.3477 3.5C13.2881 3.5 13.2284 3.5 13.1687 3.5C13.109 3.5 13.0491 3.5 12.9893 3.5C12.9294 3.5 12.8694 3.5 12.8093 3.5C12.7493 3.5 12.6892 3.5 12.629 3.5C12.5688 3.5 12.5085 3.5 12.4481 3.5C12.3877 3.5 12.3273 3.5 12.2668 3.5C12.2063 3.5 12.1456 3.5 12.085 3.5C12.0243 3.5 11.9635 3.5 11.9027 3.5C11.8418 3.5 11.7809 3.5 11.7199 3.5C11.6589 3.5 11.5978 3.5 11.5367 3.5C11.4755 3.5 11.4143 3.5 11.353 3.5C11.2917 3.5 11.2303 3.5 11.1688 3.5C11.1073 3.5 11.0457 3.5 10.9841 3.5C10.9225 3.5 10.8608 3.5 10.799 3.5C10.7372 3.5 10.6753 3.5 10.6133 3.5C10.5514 3.5 10.4893 3.5 10.4272 3.5C10.3651 3.5 10.3029 3.5 10.2406 3.5C10.1784 3.5 10.116 3.5 10.0536 3.5C9.99114 3.5 9.92862 3.5 9.86602 3.5C9.80343 3.5 9.74075 3.5 9.67799 3.5C9.61524 3.5 9.5524 3.5 9.48948 3.5C9.42656 3.5 9.36357 3.5 9.30049 3.5C9.23741 3.5 9.17425 3.5 9.11101 3.5C9.04777 3.5 8.98445 3.5 8.92105 3.5C8.85765 3.5 8.79417 3.5 8.7306 3.5C8.66704 3.5 8.6034 3.5 8.53967 3.5C8.47595 3.5 8.41215 3.5 8.34826 3.5C8.28438 3.5 8.22041 3.5 8.15636 3.5C8.09231 3.5 8.02819 3.5 7.96398 3.5C7.89977 3.5 7.83548 3.5 7.77111 3.5C7.70673 3.5 7.64228 3.5 7.57775 3.5C7.51321 3.5 7.4486 3.5 7.3839 3.5C7.31921 3.5 7.25443 3.5 7.18957 3.5C7.12471 3.5 7.05977 3.5 6.99475 3.5C6.92973 3.5 6.86463 3.5 6.79944 3.5C6.73426 3.5 6.66899 3.5 6.60364 3.5C6.5383 3.5 6.47287 3.5 6.40736 3.5C6.34185 3.5 6.27625 3.5 6.21058 3.5C6.14491 3.5 6.07915 3.5 6.01331 3.5C5.94747 3.5 5.88155 3.5 5.81555 3.5C5.74955 3.5 5.68347 3.5 5.6173 3.5C5.55114 3.5 5.48489 3.5 5.41856 3.5C5.35223 3.5 5.28582 3.5 5.21933 3.5C5.15283 3.5 5.08626 3.5 5.0196 3.5C4.95294 3.5 4.8862 3.5 4.81938 3.5C4.75256 3.5 4.68565 3.5 4.61867 3.5C4.55168 3.5 4.48461 3.5 4.41746 3.5C4.35031 3.5 4.28307 3.5 4.21576 3.5C4.14844 3.5 4.08104 3.5 4.01356 3.5C3.94608 3.5 3.87851 3.5 3.81087 3.5C3.74322 3.5 3.67549 3.5 3.60768 3.5C3.53987 3.5 3.47197 3.5 3.40399 3.5C3.33601 3.5 3.26795 3.5 3.19981 3.5C3.13167 3.5 3.06344 3.5 2.99513 3.5C2.92682 3.5 2.85843 3.5 2.78995 3.5C2.72148 3.5 2.65292 3.5 2.58428 3.5C2.51563 3.5 2.44691 3.5 2.3781 3.5C2.30929 3.5 2.2404 3.5 2.17143 3.5C2.10245 3.5 2.03339 3.5 1.96425 3.5C1.89511 3.5 1.82589 3.5 1.75658 3.5C1.68727 3.5 1.61788 3.5 1.5484 3.5C1.47893 3.5 1.40937 3.5 1.33973 3.5C1.27008 3.5 1.20036 3.5 1.13055 3.5C1.06074 3.5 0.990846 3.5 0.920869 3.5C0.850891 3.5 0.780831 3.5 0.710686 3.5C0.640541 3.5 0.570312 3.5 0.5 3.5V4.5Z" fill="white"/>
</svg>
