<svg width="54" height="8" viewBox="0 0 54 8" fill="none" xmlns="http://www.w3.org/2000/svg">
<path d="M53.3672 4.35355C53.5625 4.15829 53.5625 3.84171 53.3672 3.64645L50.1852 0.464466C49.99 0.269204 49.6734 0.269204 49.4781 0.464466C49.2829 0.659728 49.2829 0.976311 49.4781 1.17157L52.3066 4L49.4781 6.82843C49.2829 7.02369 49.2829 7.34027 49.4781 7.53553C49.6734 7.7308 49.99 7.7308 50.1852 7.53553L53.3672 4.35355ZM0.513672 4.5C0.583984 4.5 0.654213 4.5 0.724358 4.5C0.794502 4.5 0.864563 4.5 0.93454 4.5C1.00452 4.5 1.07441 4.5 1.14422 4.5C1.21403 4.5 1.28376 4.5 1.3534 4.5C1.42304 4.5 1.4926 4.5 1.56207 4.5C1.63155 4.5 1.70094 4.5 1.77025 4.5C1.83956 4.5 1.90878 4.5 1.97792 4.5C2.04707 4.5 2.11612 4.5 2.1851 4.5C2.25407 4.5 2.32296 4.5 2.39177 4.5C2.46058 4.5 2.52931 4.5 2.59795 4.5C2.66659 4.5 2.73515 4.5 2.80362 4.5C2.8721 4.5 2.94049 4.5 3.0088 4.5C3.07711 4.5 3.14534 4.5 3.21348 4.5C3.28163 4.5 3.34969 4.5 3.41766 4.5C3.48564 4.5 3.55354 4.5 3.62135 4.5C3.68916 4.5 3.75689 4.5 3.82454 4.5C3.89219 4.5 3.95975 4.5 4.02723 4.5C4.09471 4.5 4.16211 4.5 4.22943 4.5C4.29675 4.5 4.36398 4.5 4.43113 4.5C4.49828 4.5 4.56535 4.5 4.63234 4.5C4.69933 4.5 4.76623 4.5 4.83305 4.5C4.89988 4.5 4.96662 4.5 5.03327 4.5C5.09993 4.5 5.16651 4.5 5.233 4.5C5.29949 4.5 5.3659 4.5 5.43223 4.5C5.49856 4.5 5.56481 4.5 5.63098 4.5C5.69714 4.5 5.76322 4.5 5.82923 4.5C5.89523 4.5 5.96115 4.5 6.02698 4.5C6.09282 4.5 6.15858 4.5 6.22425 4.5C6.28993 4.5 6.35552 4.5 6.42103 4.5C6.48654 4.5 6.55197 4.5 6.61732 4.5C6.68266 4.5 6.74793 4.5 6.81311 4.5C6.8783 4.5 6.9434 4.5 7.00842 4.5C7.07344 4.5 7.13838 4.5 7.20324 4.5C7.2681 4.5 7.33288 4.5 7.39758 4.5C7.46227 4.5 7.52689 4.5 7.59142 4.5C7.65595 4.5 7.72041 4.5 7.78478 4.5C7.84915 4.5 7.91344 4.5 7.97765 4.5C8.04186 4.5 8.10599 4.5 8.17003 4.5C8.23408 4.5 8.29805 4.5 8.36193 4.5C8.42582 4.5 8.48962 4.5 8.55335 4.5C8.61707 4.5 8.68071 4.5 8.74428 4.5C8.80784 4.5 8.87132 4.5 8.93472 4.5C8.99812 4.5 9.06144 4.5 9.12468 4.5C9.18792 4.5 9.25108 4.5 9.31416 4.5C9.37724 4.5 9.44024 4.5 9.50315 4.5C9.56607 4.5 9.62891 4.5 9.69167 4.5C9.75442 4.5 9.8171 4.5 9.8797 4.5C9.94229 4.5 10.0048 4.5 10.0672 4.5C10.1297 4.5 10.192 4.5 10.2543 4.5C10.3166 4.5 10.3788 4.5 10.4409 4.5C10.503 4.5 10.5651 4.5 10.627 4.5C10.689 4.5 10.7508 4.5 10.8126 4.5C10.8744 4.5 10.9361 4.5 10.9978 4.5C11.0594 4.5 11.121 4.5 11.1825 4.5C11.2439 4.5 11.3053 4.5 11.3666 4.5C11.428 4.5 11.4892 4.5 11.5504 4.5C11.6115 4.5 11.6726 4.5 11.7336 4.5C11.7946 4.5 11.8555 4.5 11.9164 4.5C11.9772 4.5 12.038 4.5 12.0986 4.5C12.1593 4.5 12.2199 4.5 12.2804 4.5C12.341 4.5 12.4014 4.5 12.4618 4.5C12.5221 4.5 12.5824 4.5 12.6426 4.5C12.7028 4.5 12.763 4.5 12.823 4.5C12.8831 4.5 12.943 4.5 13.0029 4.5C13.0628 4.5 13.1226 4.5 13.1824 4.5C13.2421 4.5 13.3018 4.5 13.3613 4.5C13.4209 4.5 13.4804 4.5 13.5398 4.5C13.5992 4.5 13.6586 4.5 13.7178 4.5C13.7771 4.5 13.8363 4.5 13.8954 4.5C13.9545 4.5 14.0135 4.5 14.0725 4.5C14.1314 4.5 14.1903 4.5 14.2491 4.5C14.3079 4.5 14.3666 4.5 14.4252 4.5C14.4838 4.5 14.5424 4.5 14.6009 4.5C14.6593 4.5 14.7177 4.5 14.7761 4.5C14.8344 4.5 14.8926 4.5 14.9508 4.5C15.0089 4.5 15.067 4.5 15.125 4.5C15.183 4.5 15.241 4.5 15.2988 4.5C15.3567 4.5 15.4145 4.5 15.4722 4.5C15.5298 4.5 15.5875 4.5 15.645 4.5C15.7025 4.5 15.76 4.5 15.8174 4.5C15.8748 4.5 15.9321 4.5 15.9893 4.5C16.0466 4.5 16.1037 4.5 16.1608 4.5C16.2179 4.5 16.2749 4.5 16.3318 4.5C16.3887 4.5 16.4455 4.5 16.5023 4.5C16.5591 4.5 16.6158 4.5 16.6724 4.5C16.729 4.5 16.7855 4.5 16.842 4.5C16.8984 4.5 16.9548 4.5 17.0111 4.5C17.0674 4.5 17.1236 4.5 17.1798 4.5C17.2359 4.5 17.292 4.5 17.348 4.5C17.404 4.5 17.4599 4.5 17.5157 4.5C17.5716 4.5 17.6273 4.5 17.683 4.5C17.7387 4.5 17.7943 4.5 17.8499 4.5C17.9054 4.5 17.9608 4.5 18.0162 4.5C18.0716 4.5 18.1269 4.5 18.1821 4.5C18.2374 4.5 18.2925 4.5 18.3476 4.5C18.4027 4.5 18.4577 4.5 18.5126 4.5C18.5675 4.5 18.6223 4.5 18.6771 4.5C18.7319 4.5 18.7866 4.5 18.8412 4.5C18.8958 4.5 18.9503 4.5 19.0048 4.5C19.0593 4.5 19.1136 4.5 19.168 4.5C19.2223 4.5 19.2765 4.5 19.3307 4.5C19.3848 4.5 19.4389 4.5 19.4929 4.5C19.5469 4.5 19.6008 4.5 19.6547 4.5C19.7085 4.5 19.7623 4.5 19.816 4.5C19.8697 4.5 19.9234 4.5 19.9769 4.5C20.0305 4.5 20.0839 4.5 20.1373 4.5C20.1907 4.5 20.2441 4.5 20.2973 4.5C20.3506 4.5 20.4037 4.5 20.4568 4.5C20.5099 4.5 20.5629 4.5 20.6159 4.5C20.6688 4.5 20.7217 4.5 20.7745 4.5C20.8273 4.5 20.88 4.5 20.9327 4.5C20.9853 4.5 21.0379 4.5 21.0904 4.5C21.1429 4.5 21.1953 4.5 21.2476 4.5C21.3 4.5 21.3523 4.5 21.4044 4.5C21.4566 4.5 21.5088 4.5 21.5608 4.5C21.6129 4.5 21.6648 4.5 21.7167 4.5C21.7686 4.5 21.8204 4.5 21.8722 4.5C21.9239 4.5 21.9756 4.5 22.0272 4.5C22.0788 4.5 22.1303 4.5 22.1818 4.5C22.2332 4.5 22.2846 4.5 22.3359 4.5C22.3872 4.5 22.4384 4.5 22.4895 4.5C22.5407 4.5 22.5918 4.5 22.6428 4.5C22.6938 4.5 22.7447 4.5 22.7955 4.5C22.8464 4.5 22.8972 4.5 22.9479 4.5C22.9986 4.5 23.0492 4.5 23.0997 4.5C23.1503 4.5 23.2008 4.5 23.2512 4.5C23.3016 4.5 23.3519 4.5 23.4022 4.5C23.4524 4.5 23.5026 4.5 23.5527 4.5C23.6028 4.5 23.6529 4.5 23.7028 4.5C23.7528 4.5 23.8027 4.5 23.8525 4.5C23.9023 4.5 23.9521 4.5 24.0017 4.5C24.0514 4.5 24.101 4.5 24.1505 4.5C24.2 4.5 24.2495 4.5 24.2988 4.5C24.3482 4.5 24.3975 4.5 24.4467 4.5C24.496 4.5 24.5451 4.5 24.5942 4.5C24.6433 4.5 24.6923 4.5 24.7412 4.5C24.7902 4.5 24.839 4.5 24.8878 4.5C24.9366 4.5 24.9853 4.5 25.0339 4.5C25.0826 4.5 25.1311 4.5 25.1796 4.5C25.2281 4.5 25.2765 4.5 25.3249 4.5C25.3732 4.5 25.4215 4.5 25.4697 4.5C25.5179 4.5 25.566 4.5 25.6141 4.5C25.6622 4.5 25.7101 4.5 25.7581 4.5C25.806 4.5 25.8538 4.5 25.9016 4.5C25.9493 4.5 25.997 4.5 26.0446 4.5C26.0923 4.5 26.1398 4.5 26.1873 4.5C26.2348 4.5 26.2822 4.5 26.3295 4.5C26.3768 4.5 26.4241 4.5 26.4713 4.5C26.5184 4.5 26.5656 4.5 26.6126 4.5C26.6596 4.5 26.7066 4.5 26.7535 4.5C26.8004 4.5 26.8472 4.5 26.894 4.5C26.9407 4.5 26.9874 4.5 27.034 4.5C27.0806 4.5 27.1272 4.5 27.1736 4.5C27.2201 4.5 27.2665 4.5 27.3128 4.5C27.3591 4.5 27.4054 4.5 27.4515 4.5C27.4977 4.5 27.5438 4.5 27.5898 4.5C27.6359 4.5 27.6818 4.5 27.7277 4.5C27.7736 4.5 27.8194 4.5 27.8652 4.5C27.9109 4.5 27.9566 4.5 28.0022 4.5C28.0478 4.5 28.0933 4.5 28.1388 4.5C28.1843 4.5 28.2296 4.5 28.275 4.5C28.3203 4.5 28.3655 4.5 28.4107 4.5C28.4559 4.5 28.501 4.5 28.546 4.5C28.591 4.5 28.636 4.5 28.6809 4.5C28.7258 4.5 28.7706 4.5 28.8153 4.5C28.8601 4.5 28.9048 4.5 28.9494 4.5C28.994 4.5 29.0385 4.5 29.083 4.5C29.1274 4.5 29.1718 4.5 29.2162 4.5C29.2605 4.5 29.3047 4.5 29.3489 4.5C29.3931 4.5 29.4372 4.5 29.4812 4.5C29.5253 4.5 29.5693 4.5 29.6131 4.5C29.657 4.5 29.7009 4.5 29.7446 4.5C29.7884 4.5 29.8321 4.5 29.8757 4.5C29.9193 4.5 29.9629 4.5 30.0063 4.5C30.0498 4.5 30.0932 4.5 30.1365 4.5C30.1799 4.5 30.2231 4.5 30.2663 4.5C30.3095 4.5 30.3527 4.5 30.3957 4.5C30.4388 4.5 30.4818 4.5 30.5247 4.5C30.5676 4.5 30.6104 4.5 30.6532 4.5C30.696 4.5 30.7387 4.5 30.7813 4.5C30.824 4.5 30.8665 4.5 30.909 4.5C30.9515 4.5 30.9939 4.5 31.0363 4.5C31.0786 4.5 31.1209 4.5 31.1631 4.5C31.2054 4.5 31.2475 4.5 31.2896 4.5C31.3317 4.5 31.3737 4.5 31.4156 4.5C31.4575 4.5 31.4994 4.5 31.5412 4.5C31.583 4.5 31.6247 4.5 31.6664 4.5C31.7081 4.5 31.7497 4.5 31.7912 4.5C31.8327 4.5 31.8742 4.5 31.9155 4.5C31.9569 4.5 31.9982 4.5 32.0395 4.5C32.0807 4.5 32.1219 4.5 32.163 4.5C32.2041 4.5 32.2452 4.5 32.2861 4.5C32.3271 4.5 32.368 4.5 32.4088 4.5C32.4497 4.5 32.4904 4.5 32.5311 4.5C32.5718 4.5 32.6124 4.5 32.653 4.5C32.6936 4.5 32.734 4.5 32.7745 4.5C32.8149 4.5 32.8552 4.5 32.8955 4.5C32.9358 4.5 32.976 4.5 33.0162 4.5C33.0563 4.5 33.0964 4.5 33.1364 4.5C33.1764 4.5 33.2163 4.5 33.2562 4.5C33.2961 4.5 33.3359 4.5 33.3756 4.5C33.4154 4.5 33.455 4.5 33.4946 4.5C33.5342 4.5 33.5738 4.5 33.6132 4.5C33.6527 4.5 33.6921 4.5 33.7314 4.5C33.7707 4.5 33.81 4.5 33.8492 4.5C33.8884 4.5 33.9275 4.5 33.9666 4.5C34.0056 4.5 34.0446 4.5 34.0835 4.5C34.1225 4.5 34.1613 4.5 34.2001 4.5C34.2389 4.5 34.2776 4.5 34.3162 4.5C34.3549 4.5 34.3935 4.5 34.432 4.5C34.4705 4.5 34.5089 4.5 34.5473 4.5C34.5857 4.5 34.624 4.5 34.6623 4.5C34.7005 4.5 34.7387 4.5 34.7768 4.5C34.8149 4.5 34.853 4.5 34.8909 4.5C34.9289 4.5 34.9668 4.5 35.0047 4.5C35.0425 4.5 35.0803 4.5 35.118 4.5C35.1557 4.5 35.1933 4.5 35.2309 4.5C35.2685 4.5 35.306 4.5 35.3434 4.5C35.3809 4.5 35.4182 4.5 35.4555 4.5C35.4928 4.5 35.5301 4.5 35.5673 4.5C35.6044 4.5 35.6415 4.5 35.6786 4.5C35.7156 4.5 35.7526 4.5 35.7895 4.5C35.8264 4.5 35.8632 4.5 35.9 4.5C35.9368 4.5 35.9735 4.5 36.0101 4.5C36.0468 4.5 36.0833 4.5 36.1199 4.5C36.1564 4.5 36.1928 4.5 36.2292 4.5C36.2656 4.5 36.3019 4.5 36.3381 4.5C36.3743 4.5 36.4105 4.5 36.4466 4.5C36.4827 4.5 36.5188 4.5 36.5548 4.5C36.5907 4.5 36.6267 4.5 36.6625 4.5C36.6983 4.5 36.7341 4.5 36.7698 4.5C36.8056 4.5 36.8412 4.5 36.8768 4.5C36.9124 4.5 36.9479 4.5 36.9833 4.5C37.0188 4.5 37.0542 4.5 37.0895 4.5C37.1248 4.5 37.1601 4.5 37.1953 4.5C37.2304 4.5 37.2656 4.5 37.3006 4.5C37.3357 4.5 37.3707 4.5 37.4056 4.5C37.4405 4.5 37.4754 4.5 37.5102 4.5C37.545 4.5 37.5797 4.5 37.6144 4.5C37.649 4.5 37.6837 4.5 37.7182 4.5C37.7527 4.5 37.7872 4.5 37.8216 4.5C37.856 4.5 37.8903 4.5 37.9246 4.5C37.9589 4.5 37.9931 4.5 38.0272 4.5C38.0614 4.5 38.0955 4.5 38.1295 4.5C38.1635 4.5 38.1975 4.5 38.2313 4.5C38.2652 4.5 38.299 4.5 38.3328 4.5C38.3666 4.5 38.4003 4.5 38.4339 4.5C38.4675 4.5 38.5011 4.5 38.5346 4.5C38.5681 4.5 38.6015 4.5 38.6349 4.5C38.6682 4.5 38.7015 4.5 38.7348 4.5C38.768 4.5 38.8012 4.5 38.8343 4.5C38.8674 4.5 38.9005 4.5 38.9335 4.5C38.9664 4.5 38.9994 4.5 39.0322 4.5C39.0651 4.5 39.0979 4.5 39.1306 4.5C39.1633 4.5 39.196 4.5 39.2286 4.5C39.2612 4.5 39.2937 4.5 39.3262 4.5C39.3586 4.5 39.391 4.5 39.4234 4.5C39.4557 4.5 39.488 4.5 39.5202 4.5C39.5524 4.5 39.5846 4.5 39.6167 4.5C39.6488 4.5 39.6808 4.5 39.7128 4.5C39.7447 4.5 39.7766 4.5 39.8084 4.5C39.8403 4.5 39.8721 4.5 39.9038 4.5C39.9355 4.5 39.9671 4.5 39.9987 4.5C40.0303 4.5 40.0618 4.5 40.0932 4.5C40.1247 4.5 40.1561 4.5 40.1874 4.5C40.2187 4.5 40.25 4.5 40.2812 4.5C40.3124 4.5 40.3435 4.5 40.3746 4.5C40.4057 4.5 40.4367 4.5 40.4676 4.5C40.4986 4.5 40.5295 4.5 40.5603 4.5C40.5911 4.5 40.6219 4.5 40.6526 4.5C40.6833 4.5 40.7139 4.5 40.7445 4.5C40.7751 4.5 40.8056 4.5 40.836 4.5C40.8665 4.5 40.8968 4.5 40.9272 4.5C40.9575 4.5 40.9877 4.5 41.0179 4.5C41.0481 4.5 41.0783 4.5 41.1083 4.5C41.1384 4.5 41.1684 4.5 41.1984 4.5C41.2283 4.5 41.2582 4.5 41.288 4.5C41.3178 4.5 41.3476 4.5 41.3773 4.5C41.407 4.5 41.4366 4.5 41.4662 4.5C41.4958 4.5 41.5253 4.5 41.5547 4.5C41.5842 4.5 41.6136 4.5 41.6429 4.5C41.6722 4.5 41.7015 4.5 41.7307 4.5C41.7599 4.5 41.789 4.5 41.8181 4.5C41.8472 4.5 41.8762 4.5 41.9051 4.5C41.9341 4.5 41.963 4.5 41.9918 4.5C42.0207 4.5 42.0494 4.5 42.0781 4.5C42.1068 4.5 42.1355 4.5 42.1641 4.5C42.1926 4.5 42.2212 4.5 42.2496 4.5C42.2781 4.5 42.3065 4.5 42.3348 4.5C42.3632 4.5 42.3914 4.5 42.4197 4.5C42.4479 4.5 42.476 4.5 42.5041 4.5C42.5322 4.5 42.5603 4.5 42.5882 4.5C42.6162 4.5 42.6441 4.5 42.672 4.5C42.6998 4.5 42.7276 4.5 42.7553 4.5C42.7831 4.5 42.8107 4.5 42.8383 4.5C42.8659 4.5 42.8935 4.5 42.921 4.5C42.9484 4.5 42.9759 4.5 43.0032 4.5C43.0306 4.5 43.0579 4.5 43.0851 4.5C43.1124 4.5 43.1396 4.5 43.1667 4.5C43.1938 4.5 43.2209 4.5 43.2479 4.5C43.2749 4.5 43.3018 4.5 43.3287 4.5C43.3556 4.5 43.3824 4.5 43.4091 4.5C43.4359 4.5 43.4626 4.5 43.4892 4.5C43.5159 4.5 43.5424 4.5 43.569 4.5C43.5955 4.5 43.6219 4.5 43.6483 4.5C43.6747 4.5 43.7011 4.5 43.7273 4.5C43.7536 4.5 43.7798 4.5 43.806 4.5C43.8321 4.5 43.8582 4.5 43.8843 4.5C43.9103 4.5 43.9363 4.5 43.9622 4.5C43.9881 4.5 44.014 4.5 44.0398 4.5C44.0656 4.5 44.0913 4.5 44.117 4.5C44.1427 4.5 44.1683 4.5 44.1939 4.5C44.2194 4.5 44.2449 4.5 44.2704 4.5C44.2958 4.5 44.3212 4.5 44.3465 4.5C44.3718 4.5 44.3971 4.5 44.4223 4.5C44.4475 4.5 44.4726 4.5 44.4977 4.5C44.5228 4.5 44.5478 4.5 44.5728 4.5C44.5978 4.5 44.6227 4.5 44.6475 4.5C44.6724 4.5 44.6972 4.5 44.7219 4.5C44.7466 4.5 44.7713 4.5 44.7959 4.5C44.8205 4.5 44.8451 4.5 44.8696 4.5C44.8941 4.5 44.9185 4.5 44.9429 4.5C44.9672 4.5 44.9916 4.5 45.0158 4.5C45.0401 4.5 45.0643 4.5 45.0884 4.5C45.1126 4.5 45.1367 4.5 45.1607 4.5C45.1847 4.5 45.2087 4.5 45.2326 4.5C45.2565 4.5 45.2803 4.5 45.3041 4.5C45.3279 4.5 45.3517 4.5 45.3753 4.5C45.399 4.5 45.4226 4.5 45.4462 4.5C45.4697 4.5 45.4932 4.5 45.5167 4.5C45.5401 4.5 45.5635 4.5 45.5868 4.5C45.6102 4.5 45.6334 4.5 45.6566 4.5C45.6799 4.5 45.703 4.5 45.7261 4.5C45.7492 4.5 45.7722 4.5 45.7952 4.5C45.8182 4.5 45.8411 4.5 45.864 4.5C45.8868 4.5 45.9096 4.5 45.9324 4.5C45.9551 4.5 45.9778 4.5 46.0005 4.5C46.0231 4.5 46.0457 4.5 46.0682 4.5C46.0907 4.5 46.1132 4.5 46.1356 4.5C46.158 4.5 46.1803 4.5 46.2026 4.5C46.2249 4.5 46.2471 4.5 46.2693 4.5C46.2915 4.5 46.3136 4.5 46.3356 4.5C46.3577 4.5 46.3797 4.5 46.4016 4.5C46.4236 4.5 46.4455 4.5 46.4673 4.5C46.4891 4.5 46.5109 4.5 46.5326 4.5C46.5544 4.5 46.576 4.5 46.5976 4.5C46.6192 4.5 46.6408 4.5 46.6623 4.5C46.6837 4.5 46.7052 4.5 46.7266 4.5C46.7479 4.5 46.7692 4.5 46.7905 4.5C46.8118 4.5 46.833 4.5 46.8541 4.5C46.8753 4.5 46.8964 4.5 46.9174 4.5C46.9384 4.5 46.9594 4.5 46.9803 4.5C47.0013 4.5 47.0221 4.5 47.0429 4.5C47.0638 4.5 47.0845 4.5 47.1052 4.5C47.1259 4.5 47.1466 4.5 47.1671 4.5C47.1877 4.5 47.2083 4.5 47.2287 4.5C47.2492 4.5 47.2696 4.5 47.29 4.5C47.3103 4.5 47.3307 4.5 47.3509 4.5C47.3711 4.5 47.3913 4.5 47.4115 4.5C47.4316 4.5 47.4517 4.5 47.4717 4.5C47.4918 4.5 47.5117 4.5 47.5316 4.5C47.5516 4.5 47.5714 4.5 47.5912 4.5C47.611 4.5 47.6308 4.5 47.6505 4.5C47.6702 4.5 47.6898 4.5 47.7094 4.5C47.729 4.5 47.7485 4.5 47.768 4.5C47.7874 4.5 47.8068 4.5 47.8262 4.5C47.8456 4.5 47.8649 4.5 47.8841 4.5C47.9034 4.5 47.9226 4.5 47.9417 4.5C47.9608 4.5 47.9799 4.5 47.9989 4.5C48.018 4.5 48.037 4.5 48.0559 4.5C48.0748 4.5 48.0937 4.5 48.1125 4.5C48.1313 4.5 48.15 4.5 48.1687 4.5C48.1874 4.5 48.2061 4.5 48.2247 4.5C48.2433 4.5 48.2618 4.5 48.2803 4.5C48.2987 4.5 48.3172 4.5 48.3355 4.5C48.3539 4.5 48.3722 4.5 48.3905 4.5C48.4088 4.5 48.427 4.5 48.4451 4.5C48.4633 4.5 48.4814 4.5 48.4994 4.5C48.5175 4.5 48.5354 4.5 48.5534 4.5C48.5713 4.5 48.5892 4.5 48.607 4.5C48.6249 4.5 48.6426 4.5 48.6603 4.5C48.6781 4.5 48.6957 4.5 48.7133 4.5C48.731 4.5 48.7485 4.5 48.766 4.5C48.7835 4.5 48.801 4.5 48.8184 4.5C48.8358 4.5 48.8531 4.5 48.8704 4.5C48.8877 4.5 48.9049 4.5 48.9221 4.5C48.9393 4.5 48.9564 4.5 48.9735 4.5C48.9905 4.5 49.0076 4.5 49.0245 4.5C49.0415 4.5 49.0584 4.5 49.0753 4.5C49.0921 4.5 49.1089 4.5 49.1257 4.5C49.1424 4.5 49.1591 4.5 49.1758 4.5C49.1924 4.5 49.209 4.5 49.2255 4.5C49.2421 4.5 49.2586 4.5 49.275 4.5C49.2914 4.5 49.3078 4.5 49.3241 4.5C49.3405 4.5 49.3567 4.5 49.3729 4.5C49.3892 4.5 49.4053 4.5 49.4214 4.5C49.4375 4.5 49.4536 4.5 49.4696 4.5C49.4856 4.5 49.5016 4.5 49.5175 4.5C49.5334 4.5 49.5492 4.5 49.565 4.5C49.5808 4.5 49.5966 4.5 49.6123 4.5C49.6279 4.5 49.6436 4.5 49.6592 4.5C49.6748 4.5 49.6903 4.5 49.7058 4.5C49.7213 4.5 49.7367 4.5 49.7521 4.5C49.7674 4.5 49.7828 4.5 49.798 4.5C49.8133 4.5 49.8285 4.5 49.8437 4.5C49.8588 4.5 49.874 4.5 49.889 4.5C49.9041 4.5 49.9191 4.5 49.9341 4.5C49.949 4.5 49.9639 4.5 49.9788 4.5C49.9936 4.5 50.0084 4.5 50.0232 4.5C50.0379 4.5 50.0526 4.5 50.0673 4.5C50.0819 4.5 50.0965 4.5 50.1111 4.5C50.1256 4.5 50.1401 4.5 50.1545 4.5C50.169 4.5 50.1834 4.5 50.1977 4.5C50.212 4.5 50.2263 4.5 50.2405 4.5C50.2548 4.5 50.269 4.5 50.2831 4.5C50.2972 4.5 50.3113 4.5 50.3253 4.5C50.3393 4.5 50.3533 4.5 50.3672 4.5C50.3812 4.5 50.395 4.5 50.4089 4.5C50.4227 4.5 50.4365 4.5 50.4502 4.5C50.4639 4.5 50.4776 4.5 50.4912 4.5C50.5048 4.5 50.5184 4.5 50.5319 4.5C50.5454 4.5 50.5589 4.5 50.5723 4.5C50.5857 4.5 50.599 4.5 50.6124 4.5C50.6257 4.5 50.6389 4.5 50.6521 4.5C50.6653 4.5 50.6785 4.5 50.6916 4.5C50.7047 4.5 50.7178 4.5 50.7308 4.5C50.7438 4.5 50.7567 4.5 50.7696 4.5C50.7826 4.5 50.7954 4.5 50.8082 4.5C50.821 4.5 50.8338 4.5 50.8465 4.5C50.8592 4.5 50.8718 4.5 50.8844 4.5C50.897 4.5 50.9096 4.5 50.9221 4.5C50.9346 4.5 50.9471 4.5 50.9595 4.5C50.9719 4.5 50.9842 4.5 50.9965 4.5C51.0088 4.5 51.0211 4.5 51.0333 4.5C51.0455 4.5 51.0576 4.5 51.0697 4.5C51.0818 4.5 51.0939 4.5 51.1059 4.5C51.1179 4.5 51.1298 4.5 51.1417 4.5C51.1536 4.5 51.1655 4.5 51.1773 4.5C51.1891 4.5 51.2009 4.5 51.2126 4.5C51.2243 4.5 51.2359 4.5 51.2475 4.5C51.2591 4.5 51.2707 4.5 51.2822 4.5C51.2937 4.5 51.3052 4.5 51.3166 4.5C51.328 4.5 51.3393 4.5 51.3506 4.5C51.362 4.5 51.3732 4.5 51.3844 4.5C51.3956 4.5 51.4068 4.5 51.4179 4.5C51.429 4.5 51.4401 4.5 51.4511 4.5C51.4621 4.5 51.4731 4.5 51.484 4.5C51.4949 4.5 51.5058 4.5 51.5166 4.5C51.5274 4.5 51.5382 4.5 51.5489 4.5C51.5596 4.5 51.5703 4.5 51.5809 4.5C51.5915 4.5 51.6021 4.5 51.6127 4.5C51.6232 4.5 51.6337 4.5 51.6441 4.5C51.6545 4.5 51.6649 4.5 51.6752 4.5C51.6856 4.5 51.6958 4.5 51.7061 4.5C51.7163 4.5 51.7265 4.5 51.7366 4.5C51.7468 4.5 51.7569 4.5 51.7669 4.5C51.7769 4.5 51.7869 4.5 51.7969 4.5C51.8068 4.5 51.8167 4.5 51.8266 4.5C51.8364 4.5 51.8462 4.5 51.856 4.5C51.8657 4.5 51.8754 4.5 51.8851 4.5C51.8947 4.5 51.9044 4.5 51.9139 4.5C51.9235 4.5 51.933 4.5 51.9425 4.5C51.9519 4.5 51.9613 4.5 51.9707 4.5C51.9801 4.5 51.9894 4.5 51.9987 4.5C52.0079 4.5 52.0172 4.5 52.0264 4.5C52.0355 4.5 52.0447 4.5 52.0537 4.5C52.0628 4.5 52.0719 4.5 52.0809 4.5C52.0898 4.5 52.0988 4.5 52.1077 4.5C52.1166 4.5 52.1254 4.5 52.1342 4.5C52.143 4.5 52.1518 4.5 52.1605 4.5C52.1692 4.5 52.1779 4.5 52.1865 4.5C52.1951 4.5 52.2036 4.5 52.2122 4.5C52.2207 4.5 52.2291 4.5 52.2376 4.5C52.246 4.5 52.2544 4.5 52.2627 4.5C52.271 4.5 52.2793 4.5 52.2875 4.5C52.2958 4.5 52.304 4.5 52.3121 4.5C52.3203 4.5 52.3284 4.5 52.3364 4.5C52.3445 4.5 52.3525 4.5 52.3604 4.5C52.3684 4.5 52.3763 4.5 52.3841 4.5C52.392 4.5 52.3998 4.5 52.4076 4.5C52.4154 4.5 52.4231 4.5 52.4308 4.5C52.4384 4.5 52.4461 4.5 52.4537 4.5C52.4612 4.5 52.4688 4.5 52.4763 4.5C52.4838 4.5 52.4912 4.5 52.4986 4.5C52.506 4.5 52.5134 4.5 52.5207 4.5C52.528 4.5 52.5353 4.5 52.5425 4.5C52.5497 4.5 52.5569 4.5 52.564 4.5C52.5711 4.5 52.5782 4.5 52.5852 4.5C52.5923 4.5 52.5992 4.5 52.6062 4.5C52.6131 4.5 52.62 4.5 52.6269 4.5C52.6337 4.5 52.6405 4.5 52.6473 4.5C52.6541 4.5 52.6608 4.5 52.6674 4.5C52.6741 4.5 52.6807 4.5 52.6873 4.5C52.6939 4.5 52.7004 4.5 52.7069 4.5C52.7134 4.5 52.7198 4.5 52.7262 4.5C52.7326 4.5 52.739 4.5 52.7453 4.5C52.7516 4.5 52.7579 4.5 52.7641 4.5C52.7703 4.5 52.7765 4.5 52.7826 4.5C52.7887 4.5 52.7948 4.5 52.8008 4.5C52.8069 4.5 52.8129 4.5 52.8188 4.5C52.8248 4.5 52.8307 4.5 52.8365 4.5C52.8424 4.5 52.8482 4.5 52.8539 4.5C52.8597 4.5 52.8654 4.5 52.8711 4.5C52.8768 4.5 52.8824 4.5 52.888 4.5C52.8936 4.5 52.8992 4.5 52.9047 4.5C52.9102 4.5 52.9156 4.5 52.921 4.5C52.9264 4.5 52.9318 4.5 52.9371 4.5C52.9425 4.5 52.9477 4.5 52.953 4.5C52.9582 4.5 52.9634 4.5 52.9685 4.5C52.9737 4.5 52.9788 4.5 52.9838 4.5C52.9889 4.5 52.9939 4.5 52.9989 4.5C53.0039 4.5 53.0088 4.5 53.0137 4.5V3.5C53.0088 3.5 53.0039 3.5 52.9989 3.5C52.9939 3.5 52.9889 3.5 52.9838 3.5C52.9788 3.5 52.9737 3.5 52.9685 3.5C52.9634 3.5 52.9582 3.5 52.953 3.5C52.9477 3.5 52.9425 3.5 52.9371 3.5C52.9318 3.5 52.9264 3.5 52.921 3.5C52.9156 3.5 52.9102 3.5 52.9047 3.5C52.8992 3.5 52.8936 3.5 52.888 3.5C52.8824 3.5 52.8768 3.5 52.8711 3.5C52.8654 3.5 52.8597 3.5 52.8539 3.5C52.8482 3.5 52.8424 3.5 52.8365 3.5C52.8307 3.5 52.8248 3.5 52.8188 3.5C52.8129 3.5 52.8069 3.5 52.8008 3.5C52.7948 3.5 52.7887 3.5 52.7826 3.5C52.7765 3.5 52.7703 3.5 52.7641 3.5C52.7579 3.5 52.7516 3.5 52.7453 3.5C52.739 3.5 52.7326 3.5 52.7262 3.5C52.7198 3.5 52.7134 3.5 52.7069 3.5C52.7004 3.5 52.6939 3.5 52.6873 3.5C52.6807 3.5 52.6741 3.5 52.6674 3.5C52.6608 3.5 52.6541 3.5 52.6473 3.5C52.6405 3.5 52.6337 3.5 52.6269 3.5C52.62 3.5 52.6131 3.5 52.6062 3.5C52.5992 3.5 52.5923 3.5 52.5852 3.5C52.5782 3.5 52.5711 3.5 52.564 3.5C52.5569 3.5 52.5497 3.5 52.5425 3.5C52.5353 3.5 52.528 3.5 52.5207 3.5C52.5134 3.5 52.506 3.5 52.4986 3.5C52.4912 3.5 52.4838 3.5 52.4763 3.5C52.4688 3.5 52.4612 3.5 52.4537 3.5C52.4461 3.5 52.4384 3.5 52.4308 3.5C52.4231 3.5 52.4154 3.5 52.4076 3.5C52.3998 3.5 52.392 3.5 52.3841 3.5C52.3763 3.5 52.3684 3.5 52.3604 3.5C52.3525 3.5 52.3445 3.5 52.3364 3.5C52.3284 3.5 52.3203 3.5 52.3121 3.5C52.304 3.5 52.2958 3.5 52.2875 3.5C52.2793 3.5 52.271 3.5 52.2627 3.5C52.2544 3.5 52.246 3.5 52.2376 3.5C52.2291 3.5 52.2207 3.5 52.2122 3.5C52.2036 3.5 52.1951 3.5 52.1865 3.5C52.1779 3.5 52.1692 3.5 52.1605 3.5C52.1518 3.5 52.143 3.5 52.1342 3.5C52.1254 3.5 52.1166 3.5 52.1077 3.5C52.0988 3.5 52.0898 3.5 52.0809 3.5C52.0719 3.5 52.0628 3.5 52.0537 3.5C52.0447 3.5 52.0355 3.5 52.0264 3.5C52.0172 3.5 52.0079 3.5 51.9987 3.5C51.9894 3.5 51.9801 3.5 51.9707 3.5C51.9613 3.5 51.9519 3.5 51.9425 3.5C51.933 3.5 51.9235 3.5 51.9139 3.5C51.9044 3.5 51.8947 3.5 51.8851 3.5C51.8754 3.5 51.8657 3.5 51.856 3.5C51.8462 3.5 51.8364 3.5 51.8266 3.5C51.8167 3.5 51.8068 3.5 51.7969 3.5C51.7869 3.5 51.7769 3.5 51.7669 3.5C51.7569 3.5 51.7468 3.5 51.7366 3.5C51.7265 3.5 51.7163 3.5 51.7061 3.5C51.6958 3.5 51.6856 3.5 51.6752 3.5C51.6649 3.5 51.6545 3.5 51.6441 3.5C51.6337 3.5 51.6232 3.5 51.6127 3.5C51.6021 3.5 51.5915 3.5 51.5809 3.5C51.5703 3.5 51.5596 3.5 51.5489 3.5C51.5382 3.5 51.5274 3.5 51.5166 3.5C51.5058 3.5 51.4949 3.5 51.484 3.5C51.4731 3.5 51.4621 3.5 51.4511 3.5C51.4401 3.5 51.429 3.5 51.4179 3.5C51.4068 3.5 51.3956 3.5 51.3844 3.5C51.3732 3.5 51.362 3.5 51.3506 3.5C51.3393 3.5 51.328 3.5 51.3166 3.5C51.3052 3.5 51.2937 3.5 51.2822 3.5C51.2707 3.5 51.2591 3.5 51.2475 3.5C51.2359 3.5 51.2243 3.5 51.2126 3.5C51.2009 3.5 51.1891 3.5 51.1773 3.5C51.1655 3.5 51.1536 3.5 51.1417 3.5C51.1298 3.5 51.1179 3.5 51.1059 3.5C51.0939 3.5 51.0818 3.5 51.0697 3.5C51.0576 3.5 51.0455 3.5 51.0333 3.5C51.0211 3.5 51.0088 3.5 50.9965 3.5C50.9842 3.5 50.9719 3.5 50.9595 3.5C50.9471 3.5 50.9346 3.5 50.9221 3.5C50.9096 3.5 50.897 3.5 50.8844 3.5C50.8718 3.5 50.8592 3.5 50.8465 3.5C50.8338 3.5 50.821 3.5 50.8082 3.5C50.7954 3.5 50.7826 3.5 50.7696 3.5C50.7567 3.5 50.7438 3.5 50.7308 3.5C50.7178 3.5 50.7047 3.5 50.6916 3.5C50.6785 3.5 50.6653 3.5 50.6521 3.5C50.6389 3.5 50.6257 3.5 50.6124 3.5C50.599 3.5 50.5857 3.5 50.5723 3.5C50.5589 3.5 50.5454 3.5 50.5319 3.5C50.5184 3.5 50.5048 3.5 50.4912 3.5C50.4776 3.5 50.4639 3.5 50.4502 3.5C50.4365 3.5 50.4227 3.5 50.4089 3.5C50.395 3.5 50.3812 3.5 50.3672 3.5C50.3533 3.5 50.3393 3.5 50.3253 3.5C50.3113 3.5 50.2972 3.5 50.2831 3.5C50.269 3.5 50.2548 3.5 50.2405 3.5C50.2263 3.5 50.212 3.5 50.1977 3.5C50.1834 3.5 50.169 3.5 50.1545 3.5C50.1401 3.5 50.1256 3.5 50.1111 3.5C50.0965 3.5 50.0819 3.5 50.0673 3.5C50.0526 3.5 50.0379 3.5 50.0232 3.5C50.0084 3.5 49.9936 3.5 49.9788 3.5C49.9639 3.5 49.949 3.5 49.9341 3.5C49.9191 3.5 49.9041 3.5 49.889 3.5C49.874 3.5 49.8588 3.5 49.8437 3.5C49.8285 3.5 49.8133 3.5 49.798 3.5C49.7828 3.5 49.7674 3.5 49.7521 3.5C49.7367 3.5 49.7213 3.5 49.7058 3.5C49.6903 3.5 49.6748 3.5 49.6592 3.5C49.6436 3.5 49.6279 3.5 49.6123 3.5C49.5966 3.5 49.5808 3.5 49.565 3.5C49.5492 3.5 49.5334 3.5 49.5175 3.5C49.5016 3.5 49.4856 3.5 49.4696 3.5C49.4536 3.5 49.4375 3.5 49.4214 3.5C49.4053 3.5 49.3892 3.5 49.3729 3.5C49.3567 3.5 49.3405 3.5 49.3241 3.5C49.3078 3.5 49.2914 3.5 49.275 3.5C49.2586 3.5 49.2421 3.5 49.2255 3.5C49.209 3.5 49.1924 3.5 49.1758 3.5C49.1591 3.5 49.1424 3.5 49.1257 3.5C49.1089 3.5 49.0921 3.5 49.0753 3.5C49.0584 3.5 49.0415 3.5 49.0245 3.5C49.0076 3.5 48.9905 3.5 48.9735 3.5C48.9564 3.5 48.9393 3.5 48.9221 3.5C48.9049 3.5 48.8877 3.5 48.8704 3.5C48.8531 3.5 48.8358 3.5 48.8184 3.5C48.801 3.5 48.7835 3.5 48.766 3.5C48.7485 3.5 48.731 3.5 48.7133 3.5C48.6957 3.5 48.6781 3.5 48.6603 3.5C48.6426 3.5 48.6249 3.5 48.607 3.5C48.5892 3.5 48.5713 3.5 48.5534 3.5C48.5354 3.5 48.5175 3.5 48.4994 3.5C48.4814 3.5 48.4633 3.5 48.4451 3.5C48.427 3.5 48.4088 3.5 48.3905 3.5C48.3722 3.5 48.3539 3.5 48.3355 3.5C48.3172 3.5 48.2987 3.5 48.2803 3.5C48.2618 3.5 48.2433 3.5 48.2247 3.5C48.2061 3.5 48.1874 3.5 48.1687 3.5C48.15 3.5 48.1313 3.5 48.1125 3.5C48.0937 3.5 48.0748 3.5 48.0559 3.5C48.037 3.5 48.018 3.5 47.9989 3.5C47.9799 3.5 47.9608 3.5 47.9417 3.5C47.9226 3.5 47.9034 3.5 47.8841 3.5C47.8649 3.5 47.8456 3.5 47.8262 3.5C47.8068 3.5 47.7874 3.5 47.768 3.5C47.7485 3.5 47.729 3.5 47.7094 3.5C47.6898 3.5 47.6702 3.5 47.6505 3.5C47.6308 3.5 47.611 3.5 47.5912 3.5C47.5714 3.5 47.5516 3.5 47.5316 3.5C47.5117 3.5 47.4918 3.5 47.4717 3.5C47.4517 3.5 47.4316 3.5 47.4115 3.5C47.3913 3.5 47.3711 3.5 47.3509 3.5C47.3307 3.5 47.3103 3.5 47.29 3.5C47.2696 3.5 47.2492 3.5 47.2287 3.5C47.2083 3.5 47.1877 3.5 47.1671 3.5C47.1466 3.5 47.1259 3.5 47.1052 3.5C47.0845 3.5 47.0638 3.5 47.0429 3.5C47.0221 3.5 47.0013 3.5 46.9803 3.5C46.9594 3.5 46.9384 3.5 46.9174 3.5C46.8964 3.5 46.8753 3.5 46.8541 3.5C46.833 3.5 46.8118 3.5 46.7905 3.5C46.7692 3.5 46.7479 3.5 46.7266 3.5C46.7052 3.5 46.6837 3.5 46.6623 3.5C46.6408 3.5 46.6192 3.5 46.5976 3.5C46.576 3.5 46.5544 3.5 46.5326 3.5C46.5109 3.5 46.4891 3.5 46.4673 3.5C46.4455 3.5 46.4236 3.5 46.4016 3.5C46.3797 3.5 46.3577 3.5 46.3356 3.5C46.3136 3.5 46.2915 3.5 46.2693 3.5C46.2471 3.5 46.2249 3.5 46.2026 3.5C46.1803 3.5 46.158 3.5 46.1356 3.5C46.1132 3.5 46.0907 3.5 46.0682 3.5C46.0457 3.5 46.0231 3.5 46.0005 3.5C45.9778 3.5 45.9551 3.5 45.9324 3.5C45.9096 3.5 45.8868 3.5 45.864 3.5C45.8411 3.5 45.8182 3.5 45.7952 3.5C45.7722 3.5 45.7492 3.5 45.7261 3.5C45.703 3.5 45.6799 3.5 45.6566 3.5C45.6334 3.5 45.6102 3.5 45.5868 3.5C45.5635 3.5 45.5401 3.5 45.5167 3.5C45.4932 3.5 45.4697 3.5 45.4462 3.5C45.4226 3.5 45.399 3.5 45.3753 3.5C45.3517 3.5 45.3279 3.5 45.3041 3.5C45.2803 3.5 45.2565 3.5 45.2326 3.5C45.2087 3.5 45.1847 3.5 45.1607 3.5C45.1367 3.5 45.1126 3.5 45.0884 3.5C45.0643 3.5 45.0401 3.5 45.0158 3.5C44.9916 3.5 44.9672 3.5 44.9429 3.5C44.9185 3.5 44.8941 3.5 44.8696 3.5C44.8451 3.5 44.8205 3.5 44.7959 3.5C44.7713 3.5 44.7466 3.5 44.7219 3.5C44.6972 3.5 44.6724 3.5 44.6475 3.5C44.6227 3.5 44.5978 3.5 44.5728 3.5C44.5478 3.5 44.5228 3.5 44.4977 3.5C44.4726 3.5 44.4475 3.5 44.4223 3.5C44.3971 3.5 44.3718 3.5 44.3465 3.5C44.3212 3.5 44.2958 3.5 44.2704 3.5C44.2449 3.5 44.2194 3.5 44.1939 3.5C44.1683 3.5 44.1427 3.5 44.117 3.5C44.0913 3.5 44.0656 3.5 44.0398 3.5C44.014 3.5 43.9881 3.5 43.9622 3.5C43.9363 3.5 43.9103 3.5 43.8843 3.5C43.8582 3.5 43.8321 3.5 43.806 3.5C43.7798 3.5 43.7536 3.5 43.7273 3.5C43.7011 3.5 43.6747 3.5 43.6483 3.5C43.6219 3.5 43.5955 3.5 43.569 3.5C43.5424 3.5 43.5159 3.5 43.4892 3.5C43.4626 3.5 43.4359 3.5 43.4091 3.5C43.3824 3.5 43.3556 3.5 43.3287 3.5C43.3018 3.5 43.2749 3.5 43.2479 3.5C43.2209 3.5 43.1938 3.5 43.1667 3.5C43.1396 3.5 43.1124 3.5 43.0851 3.5C43.0579 3.5 43.0306 3.5 43.0032 3.5C42.9759 3.5 42.9484 3.5 42.921 3.5C42.8935 3.5 42.8659 3.5 42.8383 3.5C42.8107 3.5 42.7831 3.5 42.7553 3.5C42.7276 3.5 42.6998 3.5 42.672 3.5C42.6441 3.5 42.6162 3.5 42.5882 3.5C42.5603 3.5 42.5322 3.5 42.5041 3.5C42.476 3.5 42.4479 3.5 42.4197 3.5C42.3914 3.5 42.3632 3.5 42.3348 3.5C42.3065 3.5 42.2781 3.5 42.2496 3.5C42.2212 3.5 42.1926 3.5 42.1641 3.5C42.1355 3.5 42.1068 3.5 42.0781 3.5C42.0494 3.5 42.0207 3.5 41.9918 3.5C41.963 3.5 41.9341 3.5 41.9051 3.5C41.8762 3.5 41.8472 3.5 41.8181 3.5C41.789 3.5 41.7599 3.5 41.7307 3.5C41.7015 3.5 41.6722 3.5 41.6429 3.5C41.6136 3.5 41.5842 3.5 41.5547 3.5C41.5253 3.5 41.4958 3.5 41.4662 3.5C41.4366 3.5 41.407 3.5 41.3773 3.5C41.3476 3.5 41.3178 3.5 41.288 3.5C41.2582 3.5 41.2283 3.5 41.1984 3.5C41.1684 3.5 41.1384 3.5 41.1083 3.5C41.0783 3.5 41.0481 3.5 41.0179 3.5C40.9877 3.5 40.9575 3.5 40.9272 3.5C40.8968 3.5 40.8665 3.5 40.836 3.5C40.8056 3.5 40.7751 3.5 40.7445 3.5C40.7139 3.5 40.6833 3.5 40.6526 3.5C40.6219 3.5 40.5911 3.5 40.5603 3.5C40.5295 3.5 40.4986 3.5 40.4676 3.5C40.4367 3.5 40.4057 3.5 40.3746 3.5C40.3435 3.5 40.3124 3.5 40.2812 3.5C40.25 3.5 40.2187 3.5 40.1874 3.5C40.1561 3.5 40.1247 3.5 40.0932 3.5C40.0618 3.5 40.0303 3.5 39.9987 3.5C39.9671 3.5 39.9355 3.5 39.9038 3.5C39.8721 3.5 39.8403 3.5 39.8084 3.5C39.7766 3.5 39.7447 3.5 39.7128 3.5C39.6808 3.5 39.6488 3.5 39.6167 3.5C39.5846 3.5 39.5524 3.5 39.5202 3.5C39.488 3.5 39.4557 3.5 39.4234 3.5C39.391 3.5 39.3586 3.5 39.3262 3.5C39.2937 3.5 39.2612 3.5 39.2286 3.5C39.196 3.5 39.1633 3.5 39.1306 3.5C39.0979 3.5 39.0651 3.5 39.0322 3.5C38.9994 3.5 38.9664 3.5 38.9335 3.5C38.9005 3.5 38.8674 3.5 38.8343 3.5C38.8012 3.5 38.768 3.5 38.7348 3.5C38.7015 3.5 38.6682 3.5 38.6349 3.5C38.6015 3.5 38.5681 3.5 38.5346 3.5C38.5011 3.5 38.4675 3.5 38.4339 3.5C38.4003 3.5 38.3666 3.5 38.3328 3.5C38.299 3.5 38.2652 3.5 38.2313 3.5C38.1975 3.5 38.1635 3.5 38.1295 3.5C38.0955 3.5 38.0614 3.5 38.0272 3.5C37.9931 3.5 37.9589 3.5 37.9246 3.5C37.8903 3.5 37.856 3.5 37.8216 3.5C37.7872 3.5 37.7527 3.5 37.7182 3.5C37.6837 3.5 37.649 3.5 37.6144 3.5C37.5797 3.5 37.545 3.5 37.5102 3.5C37.4754 3.5 37.4405 3.5 37.4056 3.5C37.3707 3.5 37.3357 3.5 37.3006 3.5C37.2656 3.5 37.2304 3.5 37.1953 3.5C37.1601 3.5 37.1248 3.5 37.0895 3.5C37.0542 3.5 37.0188 3.5 36.9833 3.5C36.9479 3.5 36.9124 3.5 36.8768 3.5C36.8412 3.5 36.8056 3.5 36.7698 3.5C36.7341 3.5 36.6983 3.5 36.6625 3.5C36.6267 3.5 36.5907 3.5 36.5548 3.5C36.5188 3.5 36.4827 3.5 36.4466 3.5C36.4105 3.5 36.3743 3.5 36.3381 3.5C36.3019 3.5 36.2656 3.5 36.2292 3.5C36.1928 3.5 36.1564 3.5 36.1199 3.5C36.0833 3.5 36.0468 3.5 36.0101 3.5C35.9735 3.5 35.9368 3.5 35.9 3.5C35.8632 3.5 35.8264 3.5 35.7895 3.5C35.7526 3.5 35.7156 3.5 35.6786 3.5C35.6415 3.5 35.6044 3.5 35.5673 3.5C35.5301 3.5 35.4928 3.5 35.4555 3.5C35.4182 3.5 35.3809 3.5 35.3434 3.5C35.306 3.5 35.2685 3.5 35.2309 3.5C35.1933 3.5 35.1557 3.5 35.118 3.5C35.0803 3.5 35.0425 3.5 35.0047 3.5C34.9668 3.5 34.9289 3.5 34.8909 3.5C34.853 3.5 34.8149 3.5 34.7768 3.5C34.7387 3.5 34.7005 3.5 34.6623 3.5C34.624 3.5 34.5857 3.5 34.5473 3.5C34.5089 3.5 34.4705 3.5 34.432 3.5C34.3935 3.5 34.3549 3.5 34.3162 3.5C34.2776 3.5 34.2389 3.5 34.2001 3.5C34.1613 3.5 34.1225 3.5 34.0835 3.5C34.0446 3.5 34.0056 3.5 33.9666 3.5C33.9275 3.5 33.8884 3.5 33.8492 3.5C33.81 3.5 33.7707 3.5 33.7314 3.5C33.6921 3.5 33.6527 3.5 33.6132 3.5C33.5738 3.5 33.5342 3.5 33.4946 3.5C33.455 3.5 33.4154 3.5 33.3756 3.5C33.3359 3.5 33.2961 3.5 33.2562 3.5C33.2163 3.5 33.1764 3.5 33.1364 3.5C33.0964 3.5 33.0563 3.5 33.0162 3.5C32.976 3.5 32.9358 3.5 32.8955 3.5C32.8552 3.5 32.8149 3.5 32.7745 3.5C32.734 3.5 32.6936 3.5 32.653 3.5C32.6124 3.5 32.5718 3.5 32.5311 3.5C32.4904 3.5 32.4497 3.5 32.4088 3.5C32.368 3.5 32.3271 3.5 32.2861 3.5C32.2452 3.5 32.2041 3.5 32.163 3.5C32.1219 3.5 32.0807 3.5 32.0395 3.5C31.9982 3.5 31.9569 3.5 31.9155 3.5C31.8742 3.5 31.8327 3.5 31.7912 3.5C31.7497 3.5 31.7081 3.5 31.6664 3.5C31.6247 3.5 31.583 3.5 31.5412 3.5C31.4994 3.5 31.4575 3.5 31.4156 3.5C31.3737 3.5 31.3317 3.5 31.2896 3.5C31.2475 3.5 31.2054 3.5 31.1631 3.5C31.1209 3.5 31.0786 3.5 31.0363 3.5C30.9939 3.5 30.9515 3.5 30.909 3.5C30.8665 3.5 30.824 3.5 30.7813 3.5C30.7387 3.5 30.696 3.5 30.6532 3.5C30.6104 3.5 30.5676 3.5 30.5247 3.5C30.4818 3.5 30.4388 3.5 30.3957 3.5C30.3527 3.5 30.3095 3.5 30.2663 3.5C30.2231 3.5 30.1799 3.5 30.1365 3.5C30.0932 3.5 30.0498 3.5 30.0063 3.5C29.9629 3.5 29.9193 3.5 29.8757 3.5C29.8321 3.5 29.7884 3.5 29.7446 3.5C29.7009 3.5 29.657 3.5 29.6131 3.5C29.5693 3.5 29.5253 3.5 29.4812 3.5C29.4372 3.5 29.3931 3.5 29.3489 3.5C29.3047 3.5 29.2605 3.5 29.2162 3.5C29.1718 3.5 29.1274 3.5 29.083 3.5C29.0385 3.5 28.994 3.5 28.9494 3.5C28.9048 3.5 28.8601 3.5 28.8153 3.5C28.7706 3.5 28.7258 3.5 28.6809 3.5C28.636 3.5 28.591 3.5 28.546 3.5C28.501 3.5 28.4559 3.5 28.4107 3.5C28.3655 3.5 28.3203 3.5 28.275 3.5C28.2296 3.5 28.1843 3.5 28.1388 3.5C28.0933 3.5 28.0478 3.5 28.0022 3.5C27.9566 3.5 27.9109 3.5 27.8652 3.5C27.8194 3.5 27.7736 3.5 27.7277 3.5C27.6818 3.5 27.6359 3.5 27.5898 3.5C27.5438 3.5 27.4977 3.5 27.4515 3.5C27.4054 3.5 27.3591 3.5 27.3128 3.5C27.2665 3.5 27.2201 3.5 27.1736 3.5C27.1272 3.5 27.0806 3.5 27.034 3.5C26.9874 3.5 26.9407 3.5 26.894 3.5C26.8472 3.5 26.8004 3.5 26.7535 3.5C26.7066 3.5 26.6596 3.5 26.6126 3.5C26.5656 3.5 26.5184 3.5 26.4713 3.5C26.4241 3.5 26.3768 3.5 26.3295 3.5C26.2822 3.5 26.2348 3.5 26.1873 3.5C26.1398 3.5 26.0923 3.5 26.0446 3.5C25.997 3.5 25.9493 3.5 25.9016 3.5C25.8538 3.5 25.806 3.5 25.7581 3.5C25.7101 3.5 25.6622 3.5 25.6141 3.5C25.566 3.5 25.5179 3.5 25.4697 3.5C25.4215 3.5 25.3732 3.5 25.3249 3.5C25.2765 3.5 25.2281 3.5 25.1796 3.5C25.1311 3.5 25.0826 3.5 25.0339 3.5C24.9853 3.5 24.9366 3.5 24.8878 3.5C24.839 3.5 24.7902 3.5 24.7412 3.5C24.6923 3.5 24.6433 3.5 24.5942 3.5C24.5451 3.5 24.496 3.5 24.4467 3.5C24.3975 3.5 24.3482 3.5 24.2988 3.5C24.2495 3.5 24.2 3.5 24.1505 3.5C24.101 3.5 24.0514 3.5 24.0017 3.5C23.9521 3.5 23.9023 3.5 23.8525 3.5C23.8027 3.5 23.7528 3.5 23.7028 3.5C23.6529 3.5 23.6028 3.5 23.5527 3.5C23.5026 3.5 23.4524 3.5 23.4022 3.5C23.3519 3.5 23.3016 3.5 23.2512 3.5C23.2008 3.5 23.1503 3.5 23.0997 3.5C23.0492 3.5 22.9986 3.5 22.9479 3.5C22.8972 3.5 22.8464 3.5 22.7955 3.5C22.7447 3.5 22.6938 3.5 22.6428 3.5C22.5918 3.5 22.5407 3.5 22.4895 3.5C22.4384 3.5 22.3872 3.5 22.3359 3.5C22.2846 3.5 22.2332 3.5 22.1818 3.5C22.1303 3.5 22.0788 3.5 22.0272 3.5C21.9756 3.5 21.9239 3.5 21.8722 3.5C21.8204 3.5 21.7686 3.5 21.7167 3.5C21.6648 3.5 21.6129 3.5 21.5608 3.5C21.5088 3.5 21.4566 3.5 21.4044 3.5C21.3523 3.5 21.3 3.5 21.2476 3.5C21.1953 3.5 21.1429 3.5 21.0904 3.5C21.0379 3.5 20.9853 3.5 20.9327 3.5C20.88 3.5 20.8273 3.5 20.7745 3.5C20.7217 3.5 20.6688 3.5 20.6159 3.5C20.5629 3.5 20.5099 3.5 20.4568 3.5C20.4037 3.5 20.3506 3.5 20.2973 3.5C20.2441 3.5 20.1907 3.5 20.1373 3.5C20.0839 3.5 20.0305 3.5 19.9769 3.5C19.9234 3.5 19.8697 3.5 19.816 3.5C19.7623 3.5 19.7085 3.5 19.6547 3.5C19.6008 3.5 19.5469 3.5 19.4929 3.5C19.4389 3.5 19.3848 3.5 19.3307 3.5C19.2765 3.5 19.2223 3.5 19.168 3.5C19.1136 3.5 19.0593 3.5 19.0048 3.5C18.9503 3.5 18.8958 3.5 18.8412 3.5C18.7866 3.5 18.7319 3.5 18.6771 3.5C18.6223 3.5 18.5675 3.5 18.5126 3.5C18.4577 3.5 18.4027 3.5 18.3476 3.5C18.2925 3.5 18.2374 3.5 18.1821 3.5C18.1269 3.5 18.0716 3.5 18.0162 3.5C17.9608 3.5 17.9054 3.5 17.8499 3.5C17.7943 3.5 17.7387 3.5 17.683 3.5C17.6273 3.5 17.5716 3.5 17.5157 3.5C17.4599 3.5 17.404 3.5 17.348 3.5C17.292 3.5 17.2359 3.5 17.1798 3.5C17.1236 3.5 17.0674 3.5 17.0111 3.5C16.9548 3.5 16.8984 3.5 16.842 3.5C16.7855 3.5 16.729 3.5 16.6724 3.5C16.6158 3.5 16.5591 3.5 16.5023 3.5C16.4455 3.5 16.3887 3.5 16.3318 3.5C16.2749 3.5 16.2179 3.5 16.1608 3.5C16.1037 3.5 16.0466 3.5 15.9893 3.5C15.9321 3.5 15.8748 3.5 15.8174 3.5C15.76 3.5 15.7025 3.5 15.645 3.5C15.5875 3.5 15.5298 3.5 15.4722 3.5C15.4145 3.5 15.3567 3.5 15.2988 3.5C15.241 3.5 15.183 3.5 15.125 3.5C15.067 3.5 15.0089 3.5 14.9508 3.5C14.8926 3.5 14.8344 3.5 14.7761 3.5C14.7177 3.5 14.6593 3.5 14.6009 3.5C14.5424 3.5 14.4838 3.5 14.4252 3.5C14.3666 3.5 14.3079 3.5 14.2491 3.5C14.1903 3.5 14.1314 3.5 14.0725 3.5C14.0135 3.5 13.9545 3.5 13.8954 3.5C13.8363 3.5 13.7771 3.5 13.7178 3.5C13.6586 3.5 13.5992 3.5 13.5398 3.5C13.4804 3.5 13.4209 3.5 13.3613 3.5C13.3018 3.5 13.2421 3.5 13.1824 3.5C13.1226 3.5 13.0628 3.5 13.0029 3.5C12.943 3.5 12.8831 3.5 12.823 3.5C12.763 3.5 12.7028 3.5 12.6426 3.5C12.5824 3.5 12.5221 3.5 12.4618 3.5C12.4014 3.5 12.341 3.5 12.2804 3.5C12.2199 3.5 12.1593 3.5 12.0986 3.5C12.038 3.5 11.9772 3.5 11.9164 3.5C11.8555 3.5 11.7946 3.5 11.7336 3.5C11.6726 3.5 11.6115 3.5 11.5504 3.5C11.4892 3.5 11.428 3.5 11.3666 3.5C11.3053 3.5 11.2439 3.5 11.1825 3.5C11.121 3.5 11.0594 3.5 10.9978 3.5C10.9361 3.5 10.8744 3.5 10.8126 3.5C10.7508 3.5 10.689 3.5 10.627 3.5C10.5651 3.5 10.503 3.5 10.4409 3.5C10.3788 3.5 10.3166 3.5 10.2543 3.5C10.192 3.5 10.1297 3.5 10.0672 3.5C10.0048 3.5 9.94229 3.5 9.8797 3.5C9.8171 3.5 9.75442 3.5 9.69167 3.5C9.62891 3.5 9.56607 3.5 9.50315 3.5C9.44024 3.5 9.37724 3.5 9.31416 3.5C9.25108 3.5 9.18792 3.5 9.12468 3.5C9.06144 3.5 8.99812 3.5 8.93472 3.5C8.87132 3.5 8.80784 3.5 8.74428 3.5C8.68071 3.5 8.61707 3.5 8.55335 3.5C8.48962 3.5 8.42582 3.5 8.36193 3.5C8.29805 3.5 8.23408 3.5 8.17003 3.5C8.10599 3.5 8.04186 3.5 7.97765 3.5C7.91344 3.5 7.84915 3.5 7.78478 3.5C7.72041 3.5 7.65595 3.5 7.59142 3.5C7.52689 3.5 7.46227 3.5 7.39758 3.5C7.33288 3.5 7.2681 3.5 7.20324 3.5C7.13838 3.5 7.07344 3.5 7.00842 3.5C6.9434 3.5 6.8783 3.5 6.81311 3.5C6.74793 3.5 6.68266 3.5 6.61732 3.5C6.55197 3.5 6.48654 3.5 6.42103 3.5C6.35552 3.5 6.28993 3.5 6.22425 3.5C6.15858 3.5 6.09282 3.5 6.02698 3.5C5.96115 3.5 5.89523 3.5 5.82923 3.5C5.76322 3.5 5.69714 3.5 5.63098 3.5C5.56481 3.5 5.49856 3.5 5.43223 3.5C5.3659 3.5 5.29949 3.5 5.233 3.5C5.16651 3.5 5.09993 3.5 5.03327 3.5C4.96662 3.5 4.89988 3.5 4.83305 3.5C4.76623 3.5 4.69933 3.5 4.63234 3.5C4.56535 3.5 4.49828 3.5 4.43113 3.5C4.36398 3.5 4.29675 3.5 4.22943 3.5C4.16211 3.5 4.09471 3.5 4.02723 3.5C3.95975 3.5 3.89219 3.5 3.82454 3.5C3.75689 3.5 3.68916 3.5 3.62135 3.5C3.55354 3.5 3.48564 3.5 3.41766 3.5C3.34969 3.5 3.28163 3.5 3.21348 3.5C3.14534 3.5 3.07711 3.5 3.0088 3.5C2.94049 3.5 2.8721 3.5 2.80362 3.5C2.73515 3.5 2.66659 3.5 2.59795 3.5C2.52931 3.5 2.46058 3.5 2.39177 3.5C2.32296 3.5 2.25407 3.5 2.1851 3.5C2.11612 3.5 2.04707 3.5 1.97792 3.5C1.90878 3.5 1.83956 3.5 1.77025 3.5C1.70094 3.5 1.63155 3.5 1.56207 3.5C1.4926 3.5 1.42304 3.5 1.3534 3.5C1.28376 3.5 1.21403 3.5 1.14422 3.5C1.07441 3.5 1.00452 3.5 0.93454 3.5C0.864563 3.5 0.794502 3.5 0.724358 3.5C0.654213 3.5 0.583984 3.5 0.513672 3.5V4.5Z" fill="#564436"/>
</svg>
